<svg width="285" height="300" viewBox="0 0 285 300" fill="none" xmlns="http://www.w3.org/2000/svg">
<g clip-path="url(#clip0_1811_11318)">
<path d="M42.199 191.403L31.675 191.571L26.353 191.637C24.553 191.637 22.789 191.637 21.007 191.667H20.743V191.403L20.707 182.445V182.145H21.007L31.603 182.181C35.137 182.181 38.665 182.247 42.199 182.277H42.361V182.439L42.283 186.951L42.199 191.403ZM42.199 191.403L42.031 182.445L42.199 182.613C38.665 182.613 35.137 182.709 31.603 182.709L21.007 182.745L21.307 182.445V191.403L21.037 191.133C22.789 191.133 24.535 191.133 26.293 191.169L31.561 191.235L42.199 191.403Z" fill="#ECECEC"/>
<path d="M30.3805 202.686L19.8565 202.854L14.5345 202.92C12.7345 202.95 10.9705 202.92 9.18853 202.956H8.92453V202.686L8.89453 193.734V193.434H9.20053L19.7965 193.47C23.3305 193.47 26.8585 193.542 30.3925 193.572H30.5605V193.734L30.4825 198.246L30.3805 202.686ZM30.3805 202.686L30.2005 193.734L30.3625 193.896C26.8285 193.896 23.3005 193.992 19.7665 193.998L9.20053 194.034L9.50053 193.734L9.47053 202.686L9.20053 202.422C10.9525 202.422 12.6985 202.422 14.4565 202.452L19.7305 202.518L30.3805 202.686Z" fill="#ECECEC"/>
<path d="M30.3805 8.95122L19.8565 9.11922L14.5345 9.18522C12.7345 9.18522 10.9705 9.18522 9.18853 9.22122H8.92453V8.95122L8.89453 -0.000781238V-0.300781H9.20053L19.7965 -0.264781C23.3305 -0.264781 26.8585 -0.192781 30.3925 -0.162781H30.5605V-0.000781238L30.4825 4.51122L30.3805 8.95122ZM30.3805 8.95122L30.2005 -0.000781238L30.3625 0.161219C26.8285 0.161219 23.3005 0.257219 19.7665 0.263219L9.20053 0.299219L9.50053 -0.000781238L9.47053 8.95122L9.20053 8.68722C10.9525 8.68722 12.6985 8.68722 14.4565 8.68722L19.7305 8.75322L30.3805 8.95122Z" fill="#ECECEC"/>
<path d="M213.301 136.463L202.777 136.631L197.455 136.697C195.655 136.697 193.891 136.697 192.109 136.733H191.845V136.463L191.809 127.511V127.199H192.109L202.705 127.235C206.239 127.235 209.767 127.307 213.301 127.337H213.463V127.499L213.385 132.011L213.301 136.463ZM213.301 136.463L213.133 127.511L213.301 127.673C209.767 127.703 206.239 127.769 202.705 127.775L192.109 127.811L192.409 127.511L192.379 136.463L192.109 136.199C193.861 136.199 195.607 136.199 197.365 136.229L202.633 136.295L213.301 136.463Z" fill="#ECECEC"/>
<path d="M201.531 125.175L191.001 125.343L185.679 125.409C183.879 125.409 182.121 125.409 180.339 125.409H180.075V125.145L180.039 116.187V115.887H180.339L190.935 115.929C194.463 115.929 197.997 115.995 201.531 116.025H201.693V116.187L201.615 120.699L201.531 125.175ZM201.531 125.175L201.363 116.217L201.531 116.385C197.997 116.415 194.463 116.481 190.935 116.481L180.339 116.517L180.639 116.217L180.609 125.175L180.339 124.905C182.091 124.905 183.837 124.905 185.595 124.941L190.863 125.007L201.531 125.175Z" fill="#ECECEC"/>
<path d="M298.257 202.686L287.733 202.854L282.411 202.92C280.611 202.95 278.853 202.92 277.071 202.956H276.801V202.686V193.734V193.434H277.101L287.691 193.47C291.225 193.47 294.759 193.542 298.287 193.572H298.401V193.734L298.323 198.246L298.257 202.686ZM298.257 202.686L298.095 193.734L298.257 193.896C294.729 193.896 291.195 193.992 287.661 193.998L277.071 194.034L277.371 193.734L277.335 202.686L277.071 202.422C278.823 202.422 280.569 202.422 282.321 202.452L287.595 202.518L298.257 202.686Z" fill="#ECECEC"/>
<path d="M41.4501 171.293L45.6501 164.567L43.5921 163.289C43.2961 163.105 43.0574 162.841 42.9027 162.529C42.7479 162.216 42.6834 161.867 42.7161 161.519C42.7529 161.12 42.7649 160.72 42.7521 160.319C42.7441 159.972 42.8316 159.628 43.0051 159.327C43.1786 159.025 43.4314 158.777 43.7361 158.609L45.8721 157.469L42.1281 150.491L39.9921 151.631C39.3921 151.967 45.6621 151.721 45.0801 151.319C44.7565 151.099 44.4199 150.899 44.0721 150.719C43.765 150.554 43.5098 150.306 43.335 150.004C43.1602 149.703 43.0726 149.358 43.0821 149.009L43.1601 146.609L35.2461 146.363L35.1741 148.763C35.1611 149.112 35.0508 149.45 34.8558 149.74C34.6607 150.029 34.3886 150.258 34.0701 150.401C33.8961 150.479 33.7221 150.569 33.5541 150.659L33.0441 150.953C32.7489 151.134 32.4094 151.23 32.0631 151.23C31.7169 151.23 31.3774 151.134 31.0821 150.953L29.0001 149.687L24.8001 156.413L26.8641 157.691C27.1619 157.881 27.401 158.15 27.5547 158.468C27.7084 158.786 27.7705 159.14 27.7341 159.491C27.6982 159.89 27.6842 160.291 27.6921 160.691C27.703 161.038 27.6173 161.381 27.4446 161.682C27.2719 161.983 27.019 162.23 26.7141 162.395L24.5781 163.541L28.3161 170.519L30.4521 169.373C30.76 169.211 31.1066 169.137 31.4539 169.159C31.8011 169.181 32.1355 169.299 32.4201 169.499C32.7424 169.718 33.0769 169.919 33.4221 170.099C33.7216 170.265 33.9706 170.509 34.1428 170.804C34.315 171.1 34.4039 171.437 34.4001 171.779L34.3221 174.179L42.2361 174.425L42.3081 172.025C42.3248 171.676 42.4394 171.338 42.6388 171.05C42.8383 170.763 43.1146 170.537 43.4361 170.399L43.9581 170.135L44.4621 169.847C45.0621 169.475 38.7801 169.643 39.3861 170.021L41.4501 171.293ZM41.8041 166.109C40.6735 166.716 39.3884 166.973 38.1115 166.849C36.8345 166.725 35.623 166.225 34.6302 165.412C33.6374 164.6 32.908 163.511 32.5341 162.284C32.1602 161.056 32.1586 159.746 32.5297 158.518C32.9007 157.29 33.6277 156.199 34.6186 155.384C35.6095 154.569 36.8198 154.066 38.0965 153.939C39.3731 153.812 40.6588 154.067 41.7908 154.671C42.9229 155.274 43.8504 156.2 44.4561 157.331C42.1581 153.047 30.1401 172.361 41.8041 166.109Z" fill="#ECECEC"/>
<path d="M101.791 24.1473L99.0195 19.3473L97.5495 20.1993C97.3381 20.3215 97.0966 20.3818 96.8526 20.3733C96.6086 20.3648 96.3719 20.2879 96.1695 20.1513C95.9375 20.0033 95.6975 19.8653 95.4495 19.7373C95.2275 19.6263 95.0415 19.4546 94.913 19.2422C94.7845 19.0299 94.7188 18.7855 94.7235 18.5373V16.8633H89.1735V18.5613C89.1782 18.8095 89.1124 19.0539 88.984 19.2662C88.8555 19.4786 88.6695 19.6503 88.4475 19.7613C88.2002 19.8863 87.9599 20.0245 87.7275 20.1753C87.5251 20.3119 87.2884 20.3888 87.0444 20.3973C86.8003 20.4058 86.5589 20.3455 86.3475 20.2233L84.8775 19.3713L82.1055 24.1713L83.5995 24.9993C83.8068 25.1206 83.9764 25.2969 84.0897 25.5087C84.203 25.7205 84.2556 25.9595 84.2415 26.1993C84.2415 26.3373 84.2415 26.4753 84.2415 26.6073C84.2415 26.7393 84.2415 26.8833 84.2415 27.0153C84.2555 27.2544 84.2036 27.4927 84.0914 27.7043C83.9793 27.9159 83.8112 28.0927 83.6055 28.2153L82.1235 29.0733L84.8955 33.8733L86.3655 33.0273C86.578 32.9052 86.8204 32.8451 87.0653 32.8535C87.3102 32.862 87.5479 32.9388 87.7515 33.0753C87.9818 33.2261 88.2202 33.3643 88.4655 33.4893C88.6875 33.6003 88.8735 33.7719 89.002 33.9843C89.1304 34.1967 89.1962 34.4411 89.1915 34.6893V36.3873H94.7415V34.6953C94.7368 34.4471 94.8025 34.2027 94.931 33.9903C95.0595 33.7779 95.2455 33.6063 95.4675 33.4953C95.7128 33.3703 95.9511 33.2321 96.1815 33.0813C96.385 32.9448 96.6227 32.868 96.8676 32.8595C97.1125 32.8511 97.355 32.9112 97.5675 33.0333L99.0375 33.8793L101.809 29.0793L100.333 28.2273C100.127 28.1054 99.9574 27.929 99.8441 27.7174C99.7309 27.5057 99.6781 27.267 99.6915 27.0273C99.6915 26.8893 99.6915 26.7513 99.6915 26.6133C99.6915 26.4753 99.6915 26.3433 99.6915 26.2053C99.6813 25.9654 99.7362 25.7273 99.8503 25.5161C99.9643 25.3048 100.133 25.1283 100.339 25.0053L101.791 24.1473ZM96.4875 26.6253C96.4875 27.5239 96.2209 28.4022 95.7216 29.1493C95.2222 29.8964 94.5125 30.4785 93.6822 30.8221C92.8519 31.1657 91.9384 31.2553 91.0572 31.0796C90.1759 30.9038 89.3666 30.4706 88.7317 29.8348C88.0967 29.199 87.6646 28.3892 87.49 27.5077C87.3154 26.6262 87.4062 25.7128 87.7509 24.883C88.0956 24.0531 88.6787 23.3442 89.4264 22.8458C90.1742 22.3475 91.0529 22.0821 91.9515 22.0833C92.5477 22.0833 93.138 22.2008 93.6887 22.4291C94.2394 22.6575 94.7398 22.9921 95.161 23.414C95.5823 23.8358 95.9163 24.3366 96.1439 24.8876C96.3715 25.4386 96.4883 26.0291 96.4875 26.6253Z" fill="#ECECEC"/>
<path d="M39.5033 181.965C30.2393 191.031 28.7033 205.059 30.6353 217.365C30.6893 217.647 31.1213 217.569 31.1213 217.305C31.1213 214.509 31.0313 211.737 31.0433 208.977C31.0913 208.845 31.1333 208.731 31.1873 208.605C33.5873 206.847 35.8253 204.861 37.1873 202.137C38.7293 199.095 39.3413 195.663 40.5233 192.489C40.6313 192.183 40.3073 192.273 40.0973 192.429C34.4633 196.587 32.6693 201.057 31.0493 207.033C31.0838 203.908 31.4112 200.792 32.0273 197.727C33.2273 192.057 35.6573 186.435 39.7313 182.229C39.8993 182.049 39.6593 181.797 39.5033 181.965Z" fill="#1A2E35"/>
<path d="M41.2466 183.001C42.8366 183.055 43.8386 185.604 45.0806 186.349C45.7346 186.738 39.3206 186.907 39.7826 186.259C40.9826 184.543 46.3826 182.233 44.7926 181.051C45.9266 181.513 39.8186 182.527 41.0426 182.755C41.1986 182.806 41.364 182.823 41.5273 182.806C41.6907 182.788 41.8483 182.735 41.9895 182.65C42.1306 182.566 42.252 182.453 42.3453 182.317C42.4387 182.182 42.5019 182.028 42.5306 181.866C43.0706 179.521 47.1866 178.267 45.1706 178.267C46.1486 177.589 41.8946 175.933 40.4066 175.027C38.9186 174.121 42.6686 176.563 41.6066 177.427C40.0346 178.705 38.1566 180.613 38.0846 182.611C38.0006 184.951 40.0166 183.517 41.2466 183.001Z" fill="#F7E09D"/>
<path d="M40.7838 183.42C42.8178 182.49 39.6798 184.02 40.0158 183.246C40.6878 181.674 44.6118 180.408 42.9258 180.198C44.4798 179.778 40.4058 179.298 40.3158 177.798C40.2018 175.968 42.7998 177.354 40.5438 179.082C37.6998 181.26 37.7178 183.366 38.1918 183.786C38.8338 184.362 40.4478 183.6 40.7838 183.42Z" fill="#F5EAC9"/>
<path d="M18.4081 181.073C28.0081 189.779 30.0961 203.735 28.6081 216.089C28.5661 216.371 28.1341 216.311 28.1221 216.047C28.0201 213.251 27.9961 210.479 27.8821 207.719L27.7261 207.353C25.2421 205.691 22.9261 203.789 21.4681 201.125C19.8061 198.125 19.0681 194.735 17.7661 191.609C17.6401 191.309 17.9701 191.381 18.1861 191.531C23.9761 195.467 25.9381 199.871 27.7861 205.781C27.6304 202.658 27.1824 199.557 26.4481 196.517C25.0261 190.901 22.3981 185.399 18.1981 181.325C18.0181 181.199 18.2401 180.917 18.4081 181.073Z" fill="#1A2E35"/>
<path d="M16.7108 182.197C15.1208 182.311 14.2208 184.891 13.0088 185.683C12.8818 185.799 12.7315 185.886 12.568 185.939C12.4045 185.992 12.2315 186.009 12.0609 185.989C11.8902 185.969 11.7258 185.913 11.5788 185.824C11.4318 185.735 11.3056 185.615 11.2088 185.473C9.91275 183.805 11.5208 181.621 13.0628 180.379C11.9468 180.889 11.0348 181.741 9.82275 182.023C9.66789 182.08 9.5026 182.103 9.33808 182.091C9.17355 182.078 9.01363 182.031 8.86913 181.951C8.72463 181.871 8.59892 181.762 8.50051 181.629C8.40211 181.497 8.3333 181.345 8.29875 181.183C7.66875 178.867 10.5668 177.715 12.5768 177.583C11.5748 176.941 8.70675 175.183 10.1768 174.241C11.6468 173.299 15.0308 175.783 16.1348 176.611C17.7608 177.811 19.7348 179.665 19.8548 181.663C20.0468 183.997 17.9528 182.635 16.7108 182.197Z" fill="#F7E09D"/>
<path d="M17.185 182.568C15.115 181.722 11.257 183.204 10.891 182.442C10.159 180.9 13.243 179.706 14.923 179.442C13.351 179.076 10.351 178.518 10.387 177.042C10.429 175.242 14.941 176.616 17.263 178.242C20.185 180.312 20.263 182.442 19.795 182.856C19.171 183.438 17.527 182.706 17.185 182.568Z" fill="#F5EAC9"/>
<path d="M28.2276 204.071C28.8862 208.729 29.8889 213.332 31.2276 217.841C31.2459 217.93 31.2988 218.009 31.3748 218.059C31.4508 218.109 31.5435 218.127 31.6326 218.108C31.7217 218.09 31.7999 218.037 31.85 217.961C31.9 217.885 31.9179 217.792 31.8996 217.703C31.2996 213.461 30.0996 209.303 29.4996 205.055C28.8102 200.762 28.5629 196.409 28.7616 192.065C29.1696 184.913 31.1076 177.305 35.7756 171.713C35.8776 171.581 35.6616 171.395 35.5536 171.515C26.1816 182.399 27.6696 195.761 27.6756 196.961C26.3556 192.449 24.9936 187.283 19.9896 182.687C19.7736 182.489 19.6056 182.585 19.6416 182.921C20.5356 191.285 22.8636 195.653 27.7116 200.123C27.8496 201.449 28.0176 202.799 28.2276 204.071Z" fill="#1A2E35"/>
<path d="M35.8264 172.968C37.5064 172.218 39.8224 174.36 41.4904 174.504C41.6785 174.549 41.8741 174.554 42.0642 174.519C42.2544 174.483 42.4348 174.407 42.5936 174.297C42.7524 174.186 42.8859 174.043 42.9853 173.877C43.0848 173.711 43.1479 173.526 43.1704 173.334C43.5844 170.934 40.7704 169.584 38.5204 169.134C39.9364 169.05 41.3284 169.428 42.7204 169.05C42.9049 169.022 43.0815 168.956 43.2388 168.856C43.396 168.756 43.5305 168.623 43.6335 168.468C43.7364 168.312 43.8055 168.137 43.8364 167.953C43.8672 167.769 43.859 167.581 43.8124 167.4C43.2124 164.694 39.6124 165.096 37.5064 166.056C38.1784 164.856 40.1524 161.538 38.1544 161.346C36.1564 161.154 34.0504 165.546 33.3544 166.992C32.3644 169.11 31.3804 172.038 32.3104 174.144C33.4084 176.61 34.8004 174.09 35.8264 172.968Z" fill="#F7E09D"/>
<path d="M35.5415 173.605C37.1915 171.619 41.9195 171.031 41.8775 170.065C41.7875 168.097 38.0015 168.553 36.1475 169.189C37.5455 167.989 40.2995 165.775 39.4475 164.263C38.4155 162.421 34.5815 166.297 33.1115 169.231C31.2575 172.921 32.3375 175.093 33.0335 175.291C33.9935 175.567 35.2715 173.935 35.5415 173.605Z" fill="#F5EAC9"/>
<path d="M22.079 206.587L17.957 238.069H43.031C42.515 235.279 37.847 206.551 37.847 206.551L22.079 206.587Z" fill="#F5EAC9"/>
<path d="M0.230469 238.362L36.8425 238.219L73.4485 238.165L146.672 238.062L219.891 238.165L256.503 238.212L293.109 238.362L256.503 238.507L219.891 238.561L146.672 238.662L73.4485 238.561L36.8425 238.507L0.230469 238.362Z" fill="#1A2E35"/>
<path d="M146.671 299.997C205.012 299.997 252.307 293.311 252.307 285.063C252.307 276.815 205.012 270.129 146.671 270.129C88.33 270.129 41.0352 276.815 41.0352 285.063C41.0352 293.311 88.33 299.997 146.671 299.997Z" fill="#EAECF2"/>
<path d="M152.24 189.25H127.07V191.314H152.24V189.25Z" fill="#747474"/>
<path d="M152.24 191.934H127.07V193.998H152.24V191.934Z" fill="#747474"/>
<path d="M152.24 194.621H127.07V196.685H152.24V194.621Z" fill="#747474"/>
<path d="M152.24 197.305H127.07V199.369H152.24V197.305Z" fill="#747474"/>
<path d="M152.24 199.992H127.07V202.056H152.24V199.992Z" fill="#2B454E"/>
<path d="M163.135 253.566H115.285V255.63H163.135V253.566Z" fill="#2B454E"/>
<path d="M163.135 256.25H115.285V258.314H163.135V256.25Z" fill="#2B454E"/>
<path d="M163.135 258.938H115.285V261.002H163.135V258.938Z" fill="#747474"/>
<path d="M163.135 261.621H115.285V263.685H163.135V261.621Z" fill="#747474"/>
<path d="M163.135 264.305H115.285V266.369H163.135V264.305Z" fill="#747474"/>
<path d="M94.2924 172.198C94.2924 171.922 83.8164 168.406 83.8164 168.406L84.4164 132.34L98.3304 129.34L94.2924 172.198Z" fill="#A29FE4"/>
<path d="M190.43 186.36C190.508 186.09 201.572 186.402 201.572 186.402L213.398 152.328L201.362 144.738L190.43 186.36Z" fill="#A29FE4"/>
<path d="M92.2695 185.485C92.2695 185.485 96.1635 127.159 99.5775 107.977C99.5775 107.977 170.036 113.305 208.07 127.843C208.07 127.843 188.462 195.967 187.448 199.351C187.448 199.351 137.828 189.601 92.2695 185.485Z" fill="#C0BDF8"/>
<path opacity="0.1" d="M155.161 115.766C154.017 122.786 152.849 129.804 151.657 136.82L148.027 157.856L147.829 157.556L171.439 163.166L183.229 166.022L195.007 168.938L183.163 166.286L171.337 163.58L147.709 158.06L147.469 158.006L147.511 157.766L151.273 136.766C152.557 129.758 153.853 122.758 155.161 115.766Z" fill="black"/>
<path opacity="0.1" d="M152.599 119.765C152.598 120.105 152.471 120.433 152.243 120.686C152.015 120.938 151.702 121.098 151.363 121.133C151.177 121.15 150.989 121.13 150.811 121.073C150.633 121.017 150.467 120.925 150.325 120.803C150.181 120.671 150.065 120.511 149.986 120.333C149.906 120.154 149.864 119.961 149.863 119.765C149.863 119.569 149.904 119.376 149.984 119.197C150.064 119.018 150.18 118.858 150.325 118.727C150.613 118.482 150.986 118.361 151.363 118.391C151.702 118.428 152.016 118.589 152.244 118.842C152.472 119.096 152.598 119.424 152.599 119.765ZM152.599 119.765C152.599 119.603 152.564 119.444 152.497 119.297C152.43 119.15 152.332 119.019 152.209 118.913C152.077 118.803 151.92 118.726 151.752 118.687C151.584 118.648 151.41 118.648 151.242 118.688C151.075 118.728 150.919 118.807 150.787 118.918C150.655 119.029 150.551 119.169 150.482 119.327C150.414 119.485 150.383 119.657 150.393 119.829C150.402 120.001 150.452 120.169 150.537 120.318C150.623 120.468 150.742 120.596 150.885 120.691C151.029 120.787 151.192 120.848 151.363 120.869C151.514 120.888 151.668 120.874 151.814 120.83C151.959 120.785 152.094 120.711 152.209 120.611C152.332 120.507 152.43 120.377 152.497 120.231C152.565 120.085 152.599 119.926 152.599 119.765Z" fill="black"/>
<path opacity="0.1" d="M151.335 128.444C151.336 128.785 151.209 129.115 150.981 129.368C150.753 129.622 150.439 129.782 150.099 129.818C149.811 129.842 149.523 129.775 149.276 129.626C149.028 129.478 148.833 129.255 148.719 128.99C148.604 128.725 148.576 128.431 148.637 128.149C148.698 127.867 148.847 127.611 149.061 127.418C149.26 127.245 149.505 127.134 149.765 127.096C150.026 127.059 150.292 127.097 150.532 127.206C150.771 127.315 150.974 127.491 151.117 127.713C151.259 127.935 151.335 128.192 151.335 128.456V128.444ZM151.335 128.444C151.334 128.283 151.299 128.125 151.232 127.979C151.164 127.833 151.067 127.703 150.945 127.598C150.828 127.501 150.693 127.428 150.548 127.383C150.403 127.339 150.25 127.324 150.099 127.34C149.831 127.375 149.584 127.506 149.406 127.709C149.227 127.912 149.128 128.173 149.127 128.444C149.128 128.652 149.188 128.856 149.3 129.031C149.411 129.207 149.571 129.348 149.759 129.437C149.947 129.526 150.157 129.56 150.363 129.535C150.57 129.51 150.765 129.427 150.927 129.296C151.052 129.191 151.153 129.061 151.224 128.914C151.294 128.767 151.332 128.607 151.335 128.444Z" fill="black"/>
<path opacity="0.1" d="M149.808 137.614C149.807 137.954 149.68 138.282 149.452 138.535C149.223 138.787 148.91 138.946 148.572 138.982C148.385 138.998 148.197 138.977 148.019 138.919C147.84 138.861 147.675 138.768 147.534 138.646C147.387 138.516 147.269 138.357 147.189 138.179C147.108 138 147.066 137.807 147.066 137.611C147.066 137.415 147.108 137.222 147.189 137.043C147.269 136.865 147.387 136.705 147.534 136.576C147.675 136.453 147.84 136.36 148.018 136.302C148.197 136.244 148.385 136.223 148.572 136.24C148.911 136.276 149.225 136.436 149.454 136.69C149.682 136.943 149.808 137.273 149.808 137.614ZM149.808 137.614C149.809 137.457 149.776 137.302 149.713 137.159C149.649 137.015 149.556 136.887 149.439 136.783C149.322 136.678 149.184 136.6 149.035 136.553C148.885 136.506 148.727 136.491 148.572 136.51C148.299 136.538 148.046 136.667 147.862 136.871C147.679 137.075 147.577 137.34 147.577 137.614C147.577 137.888 147.679 138.153 147.862 138.357C148.046 138.561 148.299 138.689 148.572 138.718C148.723 138.733 148.875 138.719 149.021 138.674C149.166 138.63 149.301 138.557 149.418 138.46C149.54 138.356 149.638 138.226 149.706 138.08C149.773 137.934 149.808 137.775 149.808 137.614Z" fill="black"/>
<path opacity="0.1" d="M148.285 146.785C148.283 147.125 148.157 147.453 147.928 147.706C147.7 147.958 147.387 148.117 147.049 148.153C146.862 148.17 146.674 148.15 146.496 148.093C146.318 148.036 146.153 147.945 146.011 147.823C145.864 147.693 145.746 147.533 145.665 147.354C145.585 147.175 145.543 146.981 145.543 146.785C145.543 146.589 145.585 146.395 145.665 146.216C145.746 146.037 145.864 145.877 146.011 145.747C146.153 145.625 146.318 145.533 146.496 145.475C146.674 145.418 146.862 145.396 147.049 145.411C147.387 145.448 147.701 145.608 147.929 145.862C148.157 146.115 148.284 146.444 148.285 146.785ZM148.285 146.785C148.285 146.624 148.25 146.465 148.183 146.319C148.115 146.173 148.017 146.043 147.895 145.939C147.779 145.839 147.645 145.765 147.499 145.72C147.353 145.676 147.2 145.662 147.049 145.681C146.776 145.709 146.523 145.838 146.339 146.042C146.155 146.246 146.054 146.51 146.054 146.785C146.054 147.059 146.155 147.324 146.339 147.528C146.523 147.732 146.776 147.86 147.049 147.889C147.2 147.907 147.353 147.894 147.499 147.849C147.645 147.805 147.779 147.731 147.895 147.631C148.017 147.527 148.115 147.397 148.183 147.251C148.25 147.105 148.285 146.946 148.285 146.785Z" fill="black"/>
<path opacity="0.1" d="M153.478 161.399C153.48 161.741 153.354 162.071 153.126 162.325C152.897 162.579 152.582 162.739 152.242 162.773C151.866 162.802 151.493 162.682 151.204 162.437C151.059 162.306 150.943 162.146 150.863 161.967C150.784 161.788 150.742 161.595 150.742 161.399C150.74 161.207 150.778 161.017 150.854 160.841C150.93 160.665 151.043 160.507 151.184 160.378C151.326 160.248 151.494 160.15 151.676 160.091C151.859 160.031 152.052 160.011 152.242 160.031C152.581 160.065 152.895 160.224 153.124 160.477C153.352 160.73 153.479 161.058 153.478 161.399ZM153.478 161.399C153.478 161.239 153.444 161.08 153.378 160.935C153.312 160.789 153.215 160.659 153.094 160.553C152.856 160.358 152.549 160.265 152.242 160.295C152.072 160.318 151.909 160.379 151.766 160.475C151.624 160.572 151.505 160.7 151.421 160.849C151.336 160.999 151.287 161.166 151.279 161.338C151.27 161.51 151.301 161.681 151.369 161.839C151.438 161.997 151.542 162.136 151.674 162.247C151.806 162.357 151.962 162.435 152.129 162.475C152.296 162.515 152.471 162.516 152.638 162.477C152.806 162.438 152.962 162.361 153.094 162.251C153.215 162.145 153.312 162.013 153.378 161.867C153.444 161.72 153.479 161.56 153.478 161.399Z" fill="black"/>
<path opacity="0.1" d="M162.136 163.518C162.136 163.859 162.01 164.188 161.782 164.44C161.553 164.693 161.239 164.852 160.9 164.886C160.714 164.904 160.526 164.883 160.348 164.827C160.169 164.77 160.004 164.678 159.862 164.556C159.715 164.426 159.597 164.266 159.517 164.088C159.436 163.909 159.395 163.715 159.395 163.518C159.395 163.322 159.436 163.128 159.517 162.949C159.597 162.77 159.715 162.61 159.862 162.48C160.061 162.308 160.306 162.196 160.566 162.159C160.827 162.121 161.093 162.159 161.333 162.269C161.572 162.378 161.775 162.554 161.918 162.775C162.06 162.997 162.136 163.255 162.136 163.518ZM162.136 163.518C162.135 163.358 162.1 163.199 162.032 163.053C161.965 162.907 161.868 162.777 161.746 162.672C161.629 162.575 161.494 162.502 161.349 162.458C161.204 162.414 161.051 162.399 160.9 162.414C160.632 162.449 160.385 162.58 160.206 162.784C160.028 162.987 159.929 163.248 159.928 163.518C159.929 163.727 159.989 163.93 160.101 164.106C160.212 164.282 160.372 164.422 160.56 164.511C160.748 164.6 160.958 164.634 161.164 164.609C161.371 164.584 161.566 164.502 161.728 164.37C161.852 164.265 161.953 164.135 162.023 163.988C162.094 163.841 162.132 163.681 162.136 163.518Z" fill="black"/>
<path opacity="0.1" d="M170.792 165.632C170.804 165.819 170.778 166.007 170.715 166.185C170.651 166.362 170.553 166.524 170.424 166.661C170.295 166.799 170.14 166.908 169.968 166.983C169.795 167.058 169.609 167.096 169.421 167.096C169.233 167.096 169.047 167.058 168.874 166.983C168.702 166.908 168.546 166.799 168.418 166.661C168.289 166.524 168.19 166.362 168.127 166.185C168.064 166.007 168.037 165.819 168.05 165.632C168.051 165.435 168.093 165.242 168.174 165.063C168.255 164.884 168.372 164.724 168.518 164.594C168.717 164.421 168.961 164.309 169.222 164.272C169.483 164.234 169.749 164.272 169.988 164.382C170.228 164.491 170.431 164.667 170.574 164.889C170.716 165.11 170.792 165.368 170.792 165.632ZM170.792 165.632C170.789 165.471 170.753 165.313 170.686 165.167C170.619 165.022 170.522 164.892 170.402 164.786C170.163 164.59 169.857 164.497 169.55 164.528C169.379 164.55 169.216 164.612 169.074 164.708C168.931 164.804 168.813 164.932 168.728 165.082C168.644 165.231 168.595 165.399 168.586 165.571C168.577 165.742 168.608 165.914 168.677 166.071C168.746 166.229 168.85 166.369 168.982 166.479C169.114 166.589 169.269 166.668 169.437 166.708C169.604 166.748 169.778 166.748 169.946 166.709C170.113 166.67 170.269 166.593 170.402 166.484C170.521 166.375 170.616 166.244 170.683 166.097C170.75 165.951 170.787 165.793 170.792 165.632Z" fill="black"/>
<path opacity="0.1" d="M179.445 167.745C179.446 168.086 179.319 168.414 179.091 168.667C178.862 168.92 178.548 169.079 178.209 169.113C178.019 169.131 177.827 169.109 177.645 169.048C177.464 168.988 177.297 168.89 177.156 168.761C177.015 168.632 176.902 168.475 176.824 168.3C176.747 168.125 176.707 167.936 176.707 167.745C176.707 167.554 176.747 167.365 176.824 167.19C176.902 167.015 177.015 166.858 177.156 166.729C177.297 166.6 177.464 166.503 177.645 166.442C177.827 166.381 178.019 166.359 178.209 166.377C178.548 166.411 178.862 166.57 179.091 166.823C179.319 167.076 179.446 167.404 179.445 167.745ZM179.445 167.745C179.444 167.533 179.381 167.325 179.265 167.148C179.148 166.97 178.983 166.83 178.789 166.744C178.595 166.658 178.38 166.629 178.17 166.662C177.96 166.695 177.764 166.788 177.606 166.93C177.447 167.071 177.333 167.255 177.277 167.46C177.221 167.665 177.224 167.881 177.288 168.084C177.352 168.287 177.473 168.467 177.636 168.602C177.799 168.738 177.998 168.824 178.209 168.849C178.361 168.867 178.515 168.853 178.661 168.81C178.807 168.767 178.944 168.694 179.061 168.597C179.182 168.49 179.278 168.359 179.344 168.212C179.41 168.065 179.445 167.906 179.445 167.745Z" fill="black"/>
<path opacity="0.1" d="M188.096 169.952C188.077 170.216 187.983 170.468 187.824 170.679C187.665 170.89 187.449 171.051 187.201 171.142C186.953 171.233 186.684 171.249 186.426 171.191C186.169 171.132 185.934 171 185.75 170.81C185.549 170.602 185.419 170.337 185.378 170.052C185.336 169.767 185.385 169.475 185.517 169.219C185.65 168.963 185.859 168.755 186.116 168.623C186.373 168.492 186.664 168.445 186.95 168.488C187.289 168.544 187.595 168.726 187.808 168.997C188.02 169.268 188.123 169.609 188.096 169.952ZM188.096 169.952C188.11 169.795 188.091 169.637 188.04 169.489C187.988 169.34 187.905 169.204 187.796 169.091C187.688 168.977 187.556 168.888 187.41 168.829C187.264 168.771 187.107 168.745 186.95 168.752C186.675 168.759 186.413 168.868 186.213 169.058C186.014 169.247 185.893 169.503 185.872 169.777C185.851 170.051 185.932 170.323 186.1 170.541C186.268 170.758 186.511 170.905 186.782 170.954C186.931 170.982 187.085 170.979 187.233 170.946C187.381 170.913 187.522 170.85 187.646 170.762C187.774 170.667 187.881 170.546 187.959 170.406C188.036 170.266 188.083 170.112 188.096 169.952Z" fill="black"/>
<path opacity="0.1" d="M146.762 155.952C146.763 156.293 146.637 156.622 146.409 156.875C146.18 157.128 145.865 157.287 145.526 157.32C145.339 157.337 145.151 157.317 144.973 157.26C144.795 157.203 144.63 157.112 144.488 156.99C144.343 156.858 144.226 156.698 144.146 156.52C144.065 156.341 144.022 156.148 144.02 155.952C144.023 155.756 144.067 155.563 144.147 155.385C144.228 155.206 144.343 155.046 144.488 154.914C144.687 154.741 144.931 154.63 145.192 154.592C145.452 154.555 145.718 154.593 145.958 154.702C146.198 154.812 146.401 154.988 146.543 155.209C146.686 155.431 146.761 155.689 146.762 155.952ZM146.762 155.952C146.762 155.791 146.727 155.632 146.66 155.486C146.592 155.34 146.494 155.21 146.372 155.106C146.255 155.009 146.12 154.936 145.975 154.892C145.829 154.847 145.677 154.832 145.526 154.848C145.258 154.884 145.012 155.016 144.833 155.218C144.655 155.421 144.555 155.682 144.554 155.952C144.554 156.16 144.614 156.364 144.726 156.54C144.838 156.715 144.997 156.856 145.185 156.945C145.373 157.034 145.583 157.068 145.79 157.043C145.996 157.018 146.192 156.935 146.354 156.804C146.479 156.7 146.581 156.57 146.652 156.423C146.722 156.276 146.76 156.115 146.762 155.952Z" fill="black"/>
<path d="M132.196 171.15C140.414 163.761 141.086 151.109 133.697 142.891C126.308 134.674 113.656 134.002 105.438 141.391C97.2205 148.78 96.5485 161.431 103.938 169.649C111.326 177.867 123.978 178.539 132.196 171.15Z" fill="#D2D0FF" fill-opacity="0.5"/>
<path d="M134.157 160.685C137.258 152.355 133.02 143.089 124.691 139.988C116.362 136.887 107.096 141.125 103.994 149.454C100.893 157.783 105.131 167.049 113.46 170.151C121.789 173.252 131.056 169.014 134.157 160.685Z" fill="white"/>
<path d="M118.166 150.819L114.406 150.211L113.799 153.971L117.559 154.579L118.166 150.819Z" fill="#8986C2"/>
<path d="M114.698 146.017L110.949 145.41L110.342 149.159L114.091 149.767L114.698 146.017Z" fill="#8986C2"/>
<path d="M129.706 148.443L125.957 147.836L125.35 151.585L129.099 152.192L129.706 148.443Z" fill="#8986C2"/>
<path d="M112.588 161.408L108.828 160.801L108.22 164.561L111.98 165.168L112.588 161.408Z" fill="#8986C2"/>
<path d="M127.292 163.373L123.543 162.766L122.936 166.515L126.685 167.122L127.292 163.373Z" fill="#8986C2"/>
<path d="M116.959 158.26L113.199 157.652L112.592 161.412L116.352 162.02L116.959 158.26Z" fill="#8986C2"/>
<path d="M120.991 154.693L117.242 154.086L116.635 157.835L120.384 158.442L120.991 154.693Z" fill="#8986C2"/>
<path d="M125.69 152.037L121.93 151.43L121.322 155.19L125.082 155.797L125.69 152.037Z" fill="#8986C2"/>
<path d="M124.148 159.006L120.398 158.398L119.791 162.148L123.54 162.755L124.148 159.006Z" fill="#8986C2"/>
<path d="M187.978 177.328C194.982 168.779 193.73 156.172 185.182 149.168C176.634 142.164 164.026 143.415 157.022 151.963C150.018 160.512 151.27 173.119 159.818 180.123C168.366 187.128 180.974 185.876 187.978 177.328Z" fill="#D2D0FF"/>
<path opacity="0.2" d="M191.97 169.284C191.874 169.674 191.772 170.058 191.652 170.436L152.652 162.12C152.748 161.424 152.874 160.728 153.036 160.026C154.284 154.884 157.517 150.446 162.029 147.682C166.541 144.918 171.964 144.053 177.111 145.277C182.259 146.501 186.712 149.714 189.497 154.213C192.281 158.712 193.171 164.131 191.97 169.284Z" fill="black"/>
<path d="M178.696 179.436C186.871 176.019 190.729 166.622 187.313 158.446C183.896 150.271 174.499 146.413 166.323 149.829C158.147 153.246 154.289 162.643 157.706 170.819C161.122 178.995 170.52 182.853 178.696 179.436Z" fill="#FBFEFF"/>
<path d="M176.539 155.89L172.844 155.012L168.471 173.411L172.166 174.289L176.539 155.89Z" fill="#8986C2"/>
<path d="M193.13 168.905L152.168 159.173C153.534 153.821 156.948 149.22 161.674 146.362C166.401 143.504 172.061 142.618 177.435 143.894C182.809 145.171 187.466 148.509 190.402 153.187C193.338 157.866 194.318 163.511 193.13 168.905Z" fill="#D2D0FF"/>
<path d="M137.691 176.546C137.783 174.88 138.436 173.293 139.545 172.046C140.137 171.385 140.883 170.882 141.717 170.582C142.56 170.295 143.454 170.194 144.339 170.288C145.249 170.383 146.117 170.718 146.853 171.26C147.558 171.811 148.11 172.534 148.455 173.36C149.081 174.899 149.225 176.591 148.869 178.214C148.664 176.691 148.187 175.218 147.459 173.864C147.134 173.262 146.666 172.75 146.095 172.372C145.525 171.994 144.87 171.763 144.189 171.698C143.498 171.603 142.794 171.654 142.124 171.85C141.454 172.045 140.833 172.38 140.301 172.832C139.173 173.867 138.282 175.134 137.691 176.546Z" fill="white"/>
<path d="M97.7539 135.741C97.9159 133.605 98.1559 131.475 98.3539 129.345C98.5519 127.215 98.8159 125.085 99.0739 122.961C99.3319 120.837 99.5959 118.713 99.8719 116.589C100.148 114.465 100.472 112.347 100.73 110.229L100.802 109.629L101.402 109.671C106.022 109.959 110.622 110.337 115.202 110.805C117.498 111.041 119.794 111.307 122.09 111.603C124.382 111.933 126.674 112.203 128.954 112.653L115.118 111.795L101.318 110.901L101.972 110.373C101.654 112.491 101.372 114.609 101.03 116.721C100.688 118.833 100.382 120.921 100.028 123.063C99.6739 125.205 99.3259 127.263 98.9539 129.393C98.5819 131.523 98.1859 133.641 97.7539 135.741Z" fill="white"/>
<path d="M101.078 151.907C101.591 149.311 102.687 146.866 104.282 144.755C104.672 144.221 105.116 143.723 105.542 143.213C105.968 142.703 106.484 142.277 106.964 141.803C107.444 141.329 108.002 140.969 108.536 140.561C109.07 140.153 109.658 139.829 110.234 139.487C110.81 139.145 111.434 138.887 112.034 138.623L113.936 137.963L115.904 137.555C116.564 137.459 117.236 137.441 117.896 137.393C120.538 137.35 123.161 137.852 125.6 138.869C123.09 138.343 120.519 138.171 117.962 138.359C115.452 138.587 113.019 139.344 110.822 140.579C108.614 141.812 106.649 143.439 105.026 145.379C103.364 147.326 102.03 149.531 101.078 151.907Z" fill="white"/>
<path d="M156.273 157.316C157.139 154.816 158.56 152.545 160.431 150.674C160.887 150.194 161.397 149.768 161.895 149.324C162.393 148.88 162.957 148.52 163.491 148.124C164.025 147.728 164.637 147.434 165.219 147.11C165.801 146.786 166.419 146.51 167.049 146.276C167.679 146.042 168.327 145.862 168.969 145.676L170.943 145.286L172.947 145.16C173.613 145.16 174.279 145.226 174.945 145.268C177.568 145.592 180.097 146.452 182.373 147.794C179.958 146.93 177.434 146.405 174.873 146.234C172.358 146.112 169.846 146.521 167.499 147.434C165.145 148.348 162.975 149.681 161.097 151.37C159.176 153.076 157.547 155.085 156.273 157.316Z" fill="white"/>
<path d="M94.5081 221.431C89.3841 221.431 78.1641 220.279 70.9461 210.997C61.7061 199.117 65.0421 176.329 65.1921 175.363L69.2001 175.963C69.2001 176.179 65.9781 197.995 74.1441 208.495C82.1301 218.755 96.6081 217.285 96.7521 217.267L97.2081 221.293C96.3112 221.388 95.4099 221.434 94.5081 221.431Z" fill="#C0BDF8"/>
<path d="M70.4016 178.736C69.6519 178.733 68.9037 178.67 68.1636 178.55C61.4016 177.452 58.4016 173.402 57.0636 170.204C55.7256 167.006 55.4316 163.106 56.1516 158.66L64.7316 160.052C64.2876 162.806 64.4136 165.236 65.0976 166.886C65.5836 168.086 66.5256 169.484 69.5376 169.97C70.9056 170.192 72.3936 170.072 73.9476 167.732C75.0418 165.945 75.7794 163.962 76.1196 161.894L84.6996 163.286C84.1581 166.57 82.9691 169.713 81.2016 172.532C78.5076 176.582 74.7216 178.736 70.4016 178.736Z" fill="#A29FE4"/>
<path d="M102.985 233.039C102.985 232.853 95.7134 231.695 95.7134 231.695L92.1914 208.019L100.999 204.551L102.985 233.039Z" fill="#A29FE4"/>
<path d="M174.703 233.081C174.703 232.895 181.999 231.881 181.999 231.881L186.043 208.289L177.337 204.629L174.703 233.081Z" fill="#A29FE4"/>
<path d="M99.9697 199.251C99.9697 199.251 158.638 196.743 178.456 200.049C178.456 200.049 172.636 256.821 172.324 257.919C172.324 257.919 113.962 257.763 104.836 257.919C104.836 257.919 99.8917 220.167 99.9697 199.251Z" fill="#C0BDF8"/>
<path opacity="0.2" d="M117.801 214.8C117.801 214.8 149.829 213.534 160.647 215.202C160.647 215.202 157.473 243.828 157.299 244.386C157.299 244.386 125.439 244.302 120.459 244.386C120.447 244.392 118.257 224.796 117.801 214.8Z" fill="black"/>
<path opacity="0.2" d="M122.169 244.379H120.447C120.447 244.379 118.257 224.795 117.801 214.799L119.799 214.727L122.169 244.379Z" fill="black"/>
<path d="M177.043 251.31L179.293 251.73L185.743 208.056L183.175 207.582L177.043 251.31Z" fill="#C0BDF8"/>
<path d="M157.285 244.39L160.633 215.206L183.199 207.598C183.199 207.598 177.067 251.8 177.067 251.326L157.285 244.39Z" fill="#D2D0FF"/>
<path d="M102.653 216.39C102.287 213.99 102.089 211.536 101.939 209.094C101.873 207.894 101.837 206.652 101.813 205.428C101.789 204.204 101.765 202.986 101.813 201.762V201.444H102.125C106.601 201.204 111.077 200.91 115.559 200.712C120.041 200.514 124.517 200.292 128.999 200.148C124.529 200.556 120.059 200.898 115.589 201.222C111.119 201.546 106.643 201.822 102.167 202.128L102.491 201.792V205.44L102.533 209.094C102.533 210.294 102.555 211.512 102.599 212.748L102.653 216.39Z" fill="white"/>
<path d="M163.777 215.633C165.177 214.973 166.595 214.357 168.031 213.785C169.459 213.185 170.905 212.651 172.363 212.147C173.821 211.643 175.297 211.157 176.785 210.743C178.274 210.305 179.787 209.951 181.315 209.681L181.693 209.621L181.627 209.981C181.273 211.871 180.901 213.755 180.463 215.633C180.631 213.713 180.859 211.805 181.111 209.897L181.417 210.197C179.929 210.551 178.453 210.971 176.977 211.397C175.501 211.823 174.043 212.303 172.579 212.777L163.777 215.633Z" fill="white"/>
<path opacity="0.1" d="M112.41 199.371L112.788 206.667L113.112 213.969L113.676 228.573L114.12 243.183L114.294 250.491L114.414 257.799L114.036 250.503L113.712 243.201L113.148 228.597L112.71 213.987L112.53 206.679L112.41 199.371Z" fill="black"/>
<path opacity="0.1" d="M110.323 203.767C110.389 204.102 110.329 204.449 110.155 204.742C109.982 205.036 109.706 205.255 109.381 205.357C109.2 205.41 109.011 205.426 108.825 205.404C108.638 205.382 108.458 205.324 108.295 205.231C108.095 205.118 107.927 204.955 107.806 204.76C107.685 204.564 107.616 204.341 107.604 204.111C107.591 203.882 107.637 203.653 107.736 203.445C107.835 203.238 107.985 203.059 108.171 202.924C108.358 202.789 108.575 202.704 108.803 202.675C109.031 202.646 109.263 202.675 109.477 202.759C109.691 202.843 109.881 202.979 110.029 203.155C110.176 203.332 110.277 203.542 110.323 203.767ZM110.323 203.767C110.286 203.611 110.218 203.463 110.123 203.333C110.029 203.204 109.909 203.094 109.771 203.011C109.636 202.94 109.489 202.897 109.338 202.883C109.186 202.87 109.033 202.887 108.889 202.933C108.632 203.019 108.416 203.196 108.281 203.43C108.146 203.665 108.102 203.941 108.157 204.205C108.21 204.471 108.358 204.708 108.573 204.873C108.789 205.037 109.056 205.118 109.327 205.099C109.632 205.068 109.912 204.917 110.107 204.679C110.205 204.551 110.274 204.404 110.312 204.246C110.349 204.089 110.353 203.926 110.323 203.767Z" fill="black"/>
<path opacity="0.1" d="M110.823 212.523C110.877 212.781 110.855 213.049 110.76 213.295C110.664 213.541 110.5 213.754 110.286 213.909C110.073 214.064 109.819 214.153 109.555 214.167C109.292 214.181 109.03 214.118 108.801 213.987C108.548 213.843 108.347 213.622 108.227 213.356C108.107 213.09 108.075 212.793 108.135 212.508C108.195 212.223 108.344 211.964 108.561 211.77C108.778 211.575 109.051 211.454 109.341 211.425C109.68 211.391 110.02 211.485 110.294 211.688C110.568 211.891 110.756 212.188 110.823 212.523ZM110.823 212.523C110.794 212.369 110.732 212.223 110.641 212.095C110.551 211.967 110.434 211.86 110.299 211.78C110.164 211.701 110.013 211.651 109.858 211.634C109.702 211.617 109.544 211.634 109.395 211.683C109.189 211.747 109.007 211.87 108.869 212.037C108.732 212.204 108.646 212.406 108.621 212.621C108.597 212.835 108.635 213.052 108.732 213.245C108.828 213.439 108.978 213.6 109.164 213.709C109.35 213.819 109.564 213.872 109.78 213.862C109.995 213.852 110.204 213.781 110.379 213.655C110.555 213.529 110.69 213.356 110.769 213.155C110.848 212.954 110.867 212.734 110.823 212.523Z" fill="black"/>
<path opacity="0.1" d="M111.145 221.808C111.211 222.142 111.151 222.489 110.977 222.783C110.803 223.076 110.528 223.295 110.203 223.398C110.022 223.45 109.833 223.466 109.647 223.444C109.46 223.423 109.28 223.364 109.117 223.272C108.947 223.174 108.8 223.041 108.686 222.882C108.572 222.722 108.494 222.54 108.457 222.348C108.421 222.171 108.421 221.99 108.456 221.813C108.49 221.636 108.56 221.468 108.659 221.318C108.759 221.169 108.887 221.04 109.037 220.94C109.186 220.839 109.354 220.769 109.531 220.734C109.707 220.698 109.889 220.698 110.065 220.733C110.242 220.768 110.41 220.837 110.56 220.937C110.71 221.036 110.839 221.165 110.939 221.314C111.039 221.464 111.109 221.631 111.145 221.808ZM111.145 221.808C111.108 221.651 111.04 221.504 110.945 221.374C110.85 221.244 110.731 221.134 110.593 221.052C110.458 220.981 110.311 220.937 110.159 220.924C110.008 220.91 109.855 220.927 109.711 220.974C109.454 221.059 109.238 221.236 109.103 221.471C108.968 221.705 108.924 221.981 108.979 222.246C109.032 222.512 109.18 222.749 109.395 222.913C109.61 223.078 109.878 223.158 110.149 223.14C110.454 223.108 110.734 222.957 110.929 222.72C111.026 222.591 111.096 222.444 111.133 222.287C111.171 222.13 111.174 221.967 111.145 221.808Z" fill="black"/>
<path opacity="0.1" d="M111.464 231.102C111.53 231.436 111.47 231.782 111.296 232.075C111.122 232.367 110.847 232.585 110.522 232.686C110.337 232.746 110.142 232.766 109.949 232.745C109.756 232.724 109.57 232.662 109.402 232.564C109.234 232.466 109.089 232.334 108.976 232.176C108.863 232.018 108.785 231.838 108.746 231.648C108.708 231.457 108.71 231.261 108.752 231.071C108.794 230.882 108.876 230.704 108.992 230.548C109.109 230.392 109.256 230.263 109.426 230.168C109.595 230.073 109.783 230.016 109.976 229.998C110.317 229.966 110.657 230.061 110.932 230.265C111.206 230.469 111.396 230.767 111.464 231.102ZM111.464 231.102C111.414 230.854 111.281 230.631 111.087 230.469C110.892 230.307 110.648 230.216 110.395 230.212C110.143 230.207 109.896 230.289 109.696 230.444C109.496 230.599 109.355 230.818 109.296 231.064C109.238 231.31 109.265 231.569 109.373 231.798C109.482 232.026 109.665 232.211 109.893 232.321C110.12 232.431 110.379 232.46 110.625 232.403C110.872 232.346 111.092 232.207 111.248 232.008C111.347 231.881 111.417 231.735 111.454 231.579C111.491 231.422 111.495 231.26 111.464 231.102Z" fill="black"/>
<path opacity="0.1" d="M111.801 240.391C111.854 240.649 111.832 240.917 111.737 241.163C111.642 241.409 111.477 241.622 111.264 241.777C111.05 241.932 110.796 242.022 110.533 242.035C110.269 242.049 110.007 241.986 109.779 241.855C109.609 241.757 109.462 241.623 109.347 241.464C109.232 241.305 109.153 241.123 109.114 240.931C109.075 240.739 109.077 240.54 109.12 240.349C109.163 240.157 109.247 239.977 109.365 239.821C109.526 239.612 109.744 239.453 109.992 239.365C110.241 239.276 110.509 239.261 110.766 239.321C111.023 239.381 111.257 239.514 111.441 239.704C111.624 239.893 111.749 240.132 111.801 240.391ZM111.801 240.391C111.77 240.237 111.708 240.091 111.617 239.963C111.526 239.835 111.408 239.727 111.273 239.648C111.137 239.569 110.986 239.519 110.83 239.502C110.674 239.485 110.516 239.502 110.367 239.551C110.2 239.602 110.048 239.692 109.923 239.813C109.798 239.933 109.702 240.082 109.645 240.247C109.588 240.411 109.57 240.587 109.593 240.759C109.617 240.932 109.68 241.097 109.779 241.24C109.877 241.384 110.008 241.502 110.161 241.586C110.314 241.669 110.484 241.715 110.658 241.721C110.833 241.726 111.005 241.691 111.163 241.617C111.321 241.543 111.459 241.434 111.567 241.297C111.668 241.171 111.742 241.025 111.782 240.869C111.823 240.713 111.829 240.55 111.801 240.391Z" fill="black"/>
<path opacity="0.1" d="M112.1 249.676C112.166 250.01 112.107 250.357 111.933 250.651C111.759 250.944 111.483 251.163 111.158 251.266C110.972 251.322 110.777 251.339 110.584 251.314C110.392 251.29 110.206 251.226 110.04 251.125C109.874 251.024 109.732 250.889 109.621 250.73C109.511 250.57 109.436 250.389 109.4 250.198C109.363 250.005 109.367 249.807 109.41 249.616C109.454 249.425 109.536 249.245 109.652 249.088C109.767 248.939 109.911 248.815 110.075 248.724C110.239 248.632 110.419 248.574 110.606 248.554C110.951 248.519 111.295 248.616 111.572 248.823C111.849 249.031 112.037 249.335 112.1 249.676ZM112.1 249.676C112.072 249.521 112.01 249.375 111.92 249.247C111.83 249.118 111.713 249.011 111.577 248.932C111.442 248.853 111.291 248.804 111.135 248.788C110.978 248.772 110.821 248.791 110.672 248.842C110.42 248.932 110.208 249.109 110.075 249.342C109.943 249.576 109.899 249.849 109.952 250.111C110.004 250.374 110.149 250.61 110.361 250.774C110.573 250.939 110.836 251.022 111.104 251.008C111.261 250.995 111.413 250.949 111.551 250.873C111.688 250.797 111.808 250.692 111.902 250.566C111.997 250.44 112.063 250.296 112.097 250.142C112.131 249.989 112.132 249.83 112.1 249.676Z" fill="black"/>
<path d="M114.982 263.884L81.7578 273.953L82.9342 277.835L116.158 267.766L114.982 263.884Z" fill="#D2D0FF"/>
<path d="M97.9391 266.893L94.0859 268.109L95.8931 273.832L99.7463 272.615L97.9391 266.893Z" fill="#A29FE4"/>
<path d="M82.6648 283.518L74.0908 246.402L48.2188 252.534L60.9568 288.714L82.6648 283.518Z" fill="#C0BDF8"/>
<path d="M88.4058 281.634L82.6638 283.518L74.0898 246.402L82.3458 248.364L88.4058 281.634Z" fill="#A29FE4"/>
<path d="M115.568 270.226C118 270.226 119.972 268.254 119.972 265.822C119.972 263.39 118 261.418 115.568 261.418C113.136 261.418 111.164 263.39 111.164 265.822C111.164 268.254 113.136 270.226 115.568 270.226Z" fill="#A29FE4"/>
<path d="M160.895 263.785L159.711 267.664L192.914 277.802L194.098 273.923L160.895 263.785Z" fill="#D2D0FF"/>
<path d="M176.803 267.295L174.965 273.031L178.827 274.269L180.666 268.533L176.803 267.295Z" fill="#A29FE4"/>
<path d="M193.172 283.491L201.824 246.387L227.684 252.579L214.868 288.729L193.172 283.491Z" fill="#C0BDF8"/>
<path d="M187.438 281.589L193.173 283.491L201.826 246.387L193.563 248.337L187.438 281.589Z" fill="#A29FE4"/>
<path d="M155.902 265.714C155.901 266.585 156.158 267.437 156.641 268.162C157.123 268.886 157.81 269.452 158.614 269.786C159.418 270.121 160.303 270.21 161.157 270.041C162.012 269.873 162.797 269.455 163.414 268.841C164.031 268.226 164.452 267.443 164.624 266.589C164.796 265.735 164.71 264.85 164.379 264.045C164.048 263.239 163.485 262.551 162.762 262.065C162.04 261.579 161.189 261.319 160.318 261.316C159.739 261.315 159.166 261.427 158.631 261.648C158.095 261.868 157.609 262.191 157.199 262.6C156.788 263.008 156.463 263.494 156.24 264.028C156.018 264.563 155.903 265.136 155.902 265.714Z" fill="#A29FE4"/>
<path d="M186.081 219.923C186.183 219.827 196.881 209.933 209.403 213.323C222.243 216.785 232.839 236.123 232.947 236.315L236.511 234.383C236.049 233.525 224.997 213.323 210.459 209.405C195.681 205.421 183.783 216.515 183.285 216.995L186.081 219.923Z" fill="#C0BDF8"/>
<path d="M228.216 255.776L235.902 251.72C234.922 249.865 234.31 247.838 234.102 245.75C233.934 242.942 235.044 241.952 236.274 241.304C238.968 239.882 240.576 240.446 241.674 241.094C243.216 242 244.782 243.86 246.084 246.332L253.516 243.431C251.41 239.447 249.084 235.376 246.09 233.606C243.096 231.836 238.29 230.42 232.218 233.606C227.496 236.102 225.084 240.596 225.426 246.266C225.718 249.589 226.666 252.822 228.216 255.776Z" fill="#A29FE4"/>
<path d="M96.5078 237.344C97.2175 236.057 98.1981 234.939 99.3818 234.068C100.559 233.172 101.909 232.53 103.348 232.184C104.802 231.825 106.326 231.859 107.764 232.28C109.197 232.729 110.492 233.537 111.526 234.626C112.553 235.712 113.353 236.994 113.878 238.394C114.439 239.787 114.689 241.286 114.61 242.786C114.586 243.583 114.302 244.35 113.8 244.97C113.496 245.288 113.081 245.475 112.642 245.492C112.226 245.501 111.814 245.409 111.442 245.222C111.067 245.017 110.768 244.698 110.59 244.31C110.421 243.932 110.331 243.524 110.326 243.11C110.317 242.345 110.445 241.585 110.704 240.866C111.196 239.456 111.927 238.141 112.864 236.978C113.775 235.806 114.85 234.772 116.056 233.906C118.463 232.101 121.463 231.272 124.456 231.584C125.933 231.752 127.362 232.214 128.659 232.941C129.957 233.668 131.096 234.647 132.01 235.82C132.918 236.977 133.655 238.258 134.2 239.624C134.771 240.969 135.174 242.38 135.4 243.824C134.861 240.967 133.624 238.288 131.8 236.024C130.889 234.913 129.77 233.989 128.506 233.306C127.242 232.633 125.857 232.215 124.432 232.076C123.02 231.933 121.594 232.063 120.232 232.46C118.864 232.874 117.575 233.518 116.422 234.362C114.093 236.043 112.312 238.374 111.304 241.064C111.067 241.718 110.945 242.408 110.944 243.104C110.926 243.419 110.991 243.734 111.133 244.016C111.276 244.299 111.49 244.539 111.754 244.712C112.036 244.855 112.349 244.927 112.666 244.922C112.812 244.918 112.957 244.886 113.091 244.826C113.225 244.766 113.345 244.681 113.446 244.574C113.859 244.045 114.092 243.397 114.112 242.726C114.192 241.307 113.961 239.888 113.434 238.568C112.934 237.235 112.18 236.013 111.214 234.968C110.246 233.923 109.031 233.139 107.68 232.688C106.321 232.257 104.871 232.195 103.48 232.508C102.053 232.805 100.7 233.387 99.5026 234.218C98.3048 235.048 97.2864 236.112 96.5078 237.344Z" fill="#434343"/>
<path d="M94.1351 237.497C93.5695 237.321 92.9646 237.317 92.3966 237.485C91.8287 237.652 91.323 237.984 90.9434 238.439C90.5638 238.894 90.3272 239.45 90.2634 240.039C90.1996 240.628 90.3115 241.222 90.585 241.747C90.8585 242.273 91.2813 242.705 91.8002 242.991C92.3191 243.276 92.9108 243.402 93.5009 243.351C94.091 243.301 94.6529 243.077 95.116 242.708C95.5791 242.339 95.9225 241.841 96.1031 241.277C96.2239 240.9 96.2688 240.502 96.2351 240.107C96.2014 239.712 96.0899 239.328 95.9069 238.977C95.724 238.625 95.4732 238.314 95.1691 238.06C94.8649 237.806 94.5135 237.614 94.1351 237.497ZM95.7551 241.163C95.5979 241.662 95.2962 242.104 94.8882 242.431C94.4801 242.759 93.984 242.958 93.4626 243.004C92.9413 243.05 92.418 242.94 91.9591 242.688C91.5001 242.437 91.1262 242.055 90.8844 241.591C90.6426 241.126 90.544 240.601 90.6009 240.081C90.6578 239.56 90.8678 239.069 91.2042 238.668C91.5406 238.267 91.9883 237.974 92.4908 237.828C92.9933 237.682 93.5279 237.687 94.0271 237.845C94.3588 237.949 94.6668 238.117 94.9333 238.34C95.1998 238.563 95.4197 238.837 95.5802 239.145C95.7408 239.453 95.8389 239.79 95.8689 240.136C95.8989 240.483 95.8602 240.832 95.7551 241.163ZM94.1351 237.497C93.5695 237.321 92.9646 237.317 92.3966 237.485C91.8287 237.652 91.323 237.984 90.9434 238.439C90.5638 238.894 90.3272 239.45 90.2634 240.039C90.1996 240.628 90.3115 241.222 90.585 241.747C90.8585 242.273 91.2813 242.705 91.8002 242.991C92.3191 243.276 92.9108 243.402 93.5009 243.351C94.091 243.301 94.6529 243.077 95.116 242.708C95.5791 242.339 95.9225 241.841 96.1031 241.277C96.2239 240.9 96.2688 240.502 96.2351 240.107C96.2014 239.712 96.0899 239.328 95.9069 238.977C95.724 238.625 95.4732 238.314 95.1691 238.06C94.8649 237.806 94.5135 237.614 94.1351 237.497ZM95.7551 241.163C95.5979 241.662 95.2962 242.104 94.8882 242.431C94.4801 242.759 93.984 242.958 93.4626 243.004C92.9413 243.05 92.418 242.94 91.9591 242.688C91.5001 242.437 91.1262 242.055 90.8844 241.591C90.6426 241.126 90.544 240.601 90.6009 240.081C90.6578 239.56 90.8678 239.069 91.2042 238.668C91.5406 238.267 91.9883 237.974 92.4908 237.828C92.9933 237.682 93.5279 237.687 94.0271 237.845C94.3588 237.949 94.6668 238.117 94.9333 238.34C95.1998 238.563 95.4197 238.837 95.5802 239.145C95.7408 239.453 95.8389 239.79 95.8689 240.136C95.8989 240.483 95.8602 240.832 95.7551 241.163ZM94.1351 237.497C93.5695 237.321 92.9646 237.317 92.3966 237.485C91.8287 237.652 91.323 237.984 90.9434 238.439C90.5638 238.894 90.3272 239.45 90.2634 240.039C90.1996 240.628 90.3115 241.222 90.585 241.747C90.8585 242.273 91.2813 242.705 91.8002 242.991C92.3191 243.276 92.9108 243.402 93.5009 243.351C94.091 243.301 94.6529 243.077 95.116 242.708C95.5791 242.339 95.9225 241.841 96.1031 241.277C96.2239 240.9 96.2688 240.502 96.2351 240.107C96.2014 239.712 96.0899 239.328 95.9069 238.977C95.724 238.625 95.4732 238.314 95.1691 238.06C94.8649 237.806 94.5135 237.614 94.1351 237.497ZM95.7551 241.163C95.5979 241.662 95.2962 242.104 94.8882 242.431C94.4801 242.759 93.984 242.958 93.4626 243.004C92.9413 243.05 92.418 242.94 91.9591 242.688C91.5001 242.437 91.1262 242.055 90.8844 241.591C90.6426 241.126 90.544 240.601 90.6009 240.081C90.6578 239.56 90.8678 239.069 91.2042 238.668C91.5406 238.267 91.9883 237.974 92.4908 237.828C92.9933 237.682 93.5279 237.687 94.0271 237.845C94.3588 237.949 94.6668 238.117 94.9333 238.34C95.1998 238.563 95.4197 238.837 95.5802 239.145C95.7408 239.453 95.8389 239.79 95.8689 240.136C95.8989 240.483 95.8602 240.832 95.7551 241.163ZM95.1551 234.311C93.9566 233.932 92.6726 233.917 91.4658 234.269C90.2589 234.62 89.1832 235.321 88.3749 236.283C87.5666 237.246 87.0619 238.427 86.9247 239.676C86.7875 240.925 87.0239 242.188 87.6041 243.303C88.1843 244.418 89.0821 245.335 90.1841 245.94C91.286 246.545 92.5425 246.809 93.7947 246.699C95.0468 246.59 96.2383 246.111 97.2185 245.325C98.1987 244.538 98.9234 243.478 99.3011 242.279C99.5514 241.483 99.6424 240.645 99.569 239.814C99.4955 238.982 99.2589 238.173 98.8728 237.433C98.4866 236.694 97.9585 236.037 97.3186 235.501C96.6786 234.965 95.9394 234.561 95.1431 234.311H95.1551ZM96.5651 241.415C96.3578 242.071 95.9606 242.651 95.4238 243.081C94.887 243.512 94.2346 243.774 93.5491 243.833C92.8636 243.893 92.1758 243.748 91.5725 243.417C90.9693 243.086 90.4778 242.584 90.16 241.973C89.8423 241.363 89.7126 240.672 89.7874 239.988C89.8622 239.304 90.1381 238.658 90.5802 238.13C91.0223 237.603 91.6108 237.219 92.2713 237.026C92.9318 236.833 93.6347 236.84 94.2911 237.047C95.1691 237.328 95.9 237.945 96.3239 238.764C96.7478 239.582 96.8302 240.536 96.5531 241.415H96.5651ZM96.1151 241.277C96.2906 240.711 96.2948 240.106 96.1271 239.538C95.9595 238.97 95.6275 238.465 95.173 238.085C94.7184 237.706 94.1617 237.469 93.573 237.405C92.9842 237.341 92.3898 237.453 91.8645 237.727C91.3392 238 90.9066 238.423 90.6212 238.942C90.3358 239.461 90.2104 240.053 90.2607 240.643C90.311 241.233 90.5349 241.795 90.904 242.258C91.2732 242.721 91.7711 243.064 92.3351 243.245C92.7117 243.364 93.1081 243.407 93.5015 243.373C93.895 243.338 94.2777 243.226 94.6278 243.043C94.9779 242.861 95.2884 242.61 95.5416 242.307C95.7948 242.004 95.9856 241.654 96.1031 241.277H96.1151ZM95.7671 241.163C95.6099 241.662 95.3082 242.104 94.9002 242.431C94.4921 242.759 93.996 242.958 93.4746 243.004C92.9533 243.05 92.43 242.94 91.9711 242.688C91.5121 242.437 91.1381 242.055 90.8964 241.591C90.6546 241.126 90.556 240.601 90.6129 240.081C90.6698 239.56 90.8798 239.069 91.2162 238.668C91.5526 238.267 92.0003 237.974 92.5028 237.828C93.0053 237.682 93.5399 237.687 94.0391 237.845C94.3697 237.95 94.6764 238.119 94.9417 238.343C95.2069 238.566 95.4254 238.84 95.5848 239.148C95.7442 239.456 95.8412 239.793 95.8704 240.139C95.8997 240.484 95.8605 240.832 95.7551 241.163H95.7671ZM94.1471 237.497C93.5815 237.321 92.9766 237.317 92.4086 237.485C91.8407 237.652 91.335 237.984 90.9554 238.439C90.5758 238.894 90.3392 239.45 90.2754 240.039C90.2116 240.628 90.3235 241.222 90.597 241.747C90.8705 242.273 91.2933 242.705 91.8122 242.991C92.3311 243.276 92.9228 243.402 93.5129 243.351C94.1029 243.301 94.6649 243.077 95.128 242.708C95.5911 242.339 95.9345 241.841 96.1151 241.277C96.2357 240.899 96.28 240.5 96.2456 240.105C96.2111 239.71 96.0985 239.325 95.9144 238.973C95.7302 238.622 95.4781 238.31 95.1727 238.057C94.8673 237.803 94.5146 237.613 94.1351 237.497H94.1471ZM95.7671 241.163C95.6099 241.662 95.3082 242.104 94.9002 242.431C94.4921 242.759 93.996 242.958 93.4746 243.004C92.9533 243.05 92.43 242.94 91.9711 242.688C91.5121 242.437 91.1381 242.055 90.8964 241.591C90.6546 241.126 90.556 240.601 90.6129 240.081C90.6698 239.56 90.8798 239.069 91.2162 238.668C91.5526 238.267 92.0003 237.974 92.5028 237.828C93.0053 237.682 93.5399 237.687 94.0391 237.845C94.3697 237.95 94.6764 238.119 94.9417 238.343C95.2069 238.566 95.4254 238.84 95.5848 239.148C95.7442 239.456 95.8412 239.793 95.8704 240.139C95.8997 240.484 95.8605 240.832 95.7551 241.163H95.7671ZM94.1471 237.497C93.5815 237.321 92.9766 237.317 92.4086 237.485C91.8407 237.652 91.335 237.984 90.9554 238.439C90.5758 238.894 90.3392 239.45 90.2754 240.039C90.2116 240.628 90.3235 241.222 90.597 241.747C90.8705 242.273 91.2933 242.705 91.8122 242.991C92.3311 243.276 92.9228 243.402 93.5129 243.351C94.1029 243.301 94.6649 243.077 95.128 242.708C95.5911 242.339 95.9345 241.841 96.1151 241.277C96.2357 240.899 96.28 240.5 96.2456 240.105C96.2111 239.71 96.0985 239.325 95.9144 238.973C95.7302 238.622 95.4781 238.31 95.1727 238.057C94.8673 237.803 94.5146 237.613 94.1351 237.497H94.1471ZM95.7671 241.163C95.6099 241.662 95.3082 242.104 94.9002 242.431C94.4921 242.759 93.996 242.958 93.4746 243.004C92.9533 243.05 92.43 242.94 91.9711 242.688C91.5121 242.437 91.1381 242.055 90.8964 241.591C90.6546 241.126 90.556 240.601 90.6129 240.081C90.6698 239.56 90.8798 239.069 91.2162 238.668C91.5526 238.267 92.0003 237.974 92.5028 237.828C93.0053 237.682 93.5399 237.687 94.0391 237.845C94.3697 237.95 94.6764 238.119 94.9417 238.343C95.2069 238.566 95.4254 238.84 95.5848 239.148C95.7442 239.456 95.8412 239.793 95.8704 240.139C95.8997 240.484 95.8605 240.832 95.7551 241.163H95.7671Z" fill="#434343"/>
<path d="M92.5657 246.547L90.2377 245.809L89.8477 247.501L91.9177 248.155L92.5657 246.547Z" fill="#434343"/>
<path d="M88.3813 244.361L87.2533 242.195L85.7773 243.113L86.7853 245.039L88.3813 244.361Z" fill="#434343"/>
<path d="M86.9596 239.855L87.6976 237.527L86.0056 237.137L85.3516 239.207L86.9596 239.855Z" fill="#434343"/>
<path d="M89.1468 235.672L91.3128 234.544L90.3948 233.074L88.4688 234.076L89.1468 235.672Z" fill="#434343"/>
<path d="M93.6445 234.26L95.9785 234.992L96.3685 233.3L94.2925 232.652L93.6445 234.26Z" fill="#434343"/>
<path d="M97.832 236.436L98.96 238.602L100.43 237.684L99.428 235.758L97.832 236.436Z" fill="#434343"/>
<path d="M99.2476 240.941L98.5156 243.269L100.208 243.659L100.856 241.589L99.2476 240.941Z" fill="#434343"/>
<path d="M97.0683 245.121L94.9023 246.249L95.8203 247.725L97.7463 246.717L97.0683 245.121Z" fill="#434343"/>
<path d="M103.484 87.792V83.148L121.628 57.12H129.08V82.446H134.102V87.792H129.08V96H123.032V87.792H103.484ZM123.302 63.384L110.558 82.446H123.302V63.384ZM139.203 75.804C139.203 69.576 140.247 64.716 142.335 61.224C144.459 57.696 148.095 55.932 153.243 55.932C158.391 55.932 162.009 57.696 164.097 61.224C166.221 64.716 167.283 69.576 167.283 75.804C167.283 82.104 166.221 87.036 164.097 90.6C162.009 94.128 158.391 95.892 153.243 95.892C148.095 95.892 144.459 94.128 142.335 90.6C140.247 87.036 139.203 82.104 139.203 75.804ZM161.235 75.804C161.235 72.888 161.037 70.422 160.641 68.406C160.281 66.39 159.525 64.752 158.373 63.492C157.221 62.196 155.511 61.548 153.243 61.548C150.975 61.548 149.265 62.196 148.113 63.492C146.961 64.752 146.187 66.39 145.791 68.406C145.431 70.422 145.251 72.888 145.251 75.804C145.251 78.828 145.431 81.366 145.791 83.418C146.151 85.47 146.907 87.126 148.059 88.386C149.247 89.646 150.975 90.276 153.243 90.276C155.511 90.276 157.221 89.646 158.373 88.386C159.561 87.126 160.335 85.47 160.695 83.418C161.055 81.366 161.235 78.828 161.235 75.804ZM173.041 87.792V83.148L191.185 57.12H198.637V82.446H203.659V87.792H198.637V96H192.589V87.792H173.041ZM192.859 63.384L180.115 82.446H192.859V63.384Z" fill="#434343"/>
</g>
<defs>
<clipPath id="clip0_1811_11318">
<rect width="285" height="300" fill="white"/>
</clipPath>
</defs>
</svg>
