<svg width="350" height="350" viewBox="0 0 350 350" fill="none" xmlns="http://www.w3.org/2000/svg">
<g clip-path="url(#clip0_1811_7057)">
<path d="M50.3982 223.301L38.1202 223.497L31.9112 223.574C29.8112 223.574 27.7532 223.574 25.6742 223.609H25.3662V223.301L25.3242 212.85V212.5H25.6742L38.0362 212.542C42.1592 212.542 46.2752 212.619 50.3982 212.654H50.5872V212.843L50.4962 218.107L50.3982 223.301ZM50.3982 223.301L50.2022 212.85L50.3982 213.046C46.2752 213.046 42.1592 213.158 38.0362 213.158L25.6742 213.2L26.0242 212.85V223.301L25.7092 222.986C27.7532 222.986 29.7902 222.986 31.8412 223.028L37.9872 223.105L50.3982 223.301Z" fill="#ECECEC"/>
<path d="M36.61 236.466L24.332 236.662L18.123 236.739C16.023 236.774 13.965 236.739 11.886 236.781H11.578V236.466L11.543 226.022V225.672H11.9L24.262 225.714C28.385 225.714 32.501 225.798 36.624 225.833H36.82V226.022L36.729 231.286L36.61 236.466ZM36.61 236.466L36.4 226.022L36.589 226.211C32.466 226.211 28.35 226.323 24.227 226.33L11.9 226.372L12.25 226.022L12.215 236.466L11.9 236.158C13.944 236.158 15.981 236.158 18.032 236.193L24.185 236.27L36.61 236.466Z" fill="#ECECEC"/>
<path d="M36.61 10.4424L24.332 10.6384L18.123 10.7154C16.023 10.7154 13.965 10.7154 11.886 10.7574H11.578V10.4424L11.543 -0.00156248V-0.351562H11.9L24.262 -0.309562C28.385 -0.309562 32.501 -0.225562 36.624 -0.190563H36.82V-0.00156248L36.729 5.26244L36.61 10.4424ZM36.61 10.4424L36.4 -0.00156248L36.589 0.187438C32.466 0.187438 28.35 0.299438 24.227 0.306438L11.9 0.348438L12.25 -0.00156248L12.215 10.4424L11.9 10.1344C13.944 10.1344 15.981 10.1344 18.032 10.1344L24.185 10.2114L36.61 10.4424Z" fill="#ECECEC"/>
<path d="M250.019 159.206L237.741 159.402L231.532 159.479C229.432 159.479 227.374 159.479 225.295 159.521H224.987V159.206L224.945 148.762V148.398H225.295L237.657 148.44C241.78 148.44 245.896 148.524 250.019 148.559H250.208V148.748L250.117 154.012L250.019 159.206ZM250.019 159.206L249.823 148.762L250.019 148.951C245.896 148.986 241.78 149.063 237.657 149.07L225.295 149.112L225.645 148.762L225.61 159.206L225.295 158.898C227.339 158.898 229.376 158.898 231.427 158.933L237.573 159.01L250.019 159.206Z" fill="#ECECEC"/>
<path d="M236.285 146.039L224 146.235L217.791 146.312C215.691 146.312 213.64 146.312 211.561 146.312H211.253V146.004L211.211 135.553V135.203H211.561L223.923 135.252C228.039 135.252 232.162 135.329 236.285 135.364H236.474V135.553L236.383 140.817L236.285 146.039ZM236.285 146.039L236.089 135.588L236.285 135.784C232.162 135.819 228.039 135.896 223.923 135.896L211.561 135.938L211.911 135.588L211.876 146.039L211.561 145.724C213.605 145.724 215.642 145.724 217.693 145.766L223.839 145.843L236.285 146.039Z" fill="#ECECEC"/>
<path d="M349.134 236.466L336.856 236.662L330.647 236.739C328.547 236.774 326.496 236.739 324.417 236.781H324.102V236.466V226.022V225.672H324.452L336.807 225.714C340.93 225.714 345.053 225.798 349.169 225.833H349.302V226.022L349.211 231.286L349.134 236.466ZM349.134 236.466L348.945 226.022L349.134 226.211C345.018 226.211 340.895 226.323 336.772 226.33L324.417 226.372L324.767 226.022L324.725 236.466L324.417 236.158C326.461 236.158 328.498 236.158 330.542 236.193L336.695 236.27L349.134 236.466Z" fill="#ECECEC"/>
<path d="M49.5238 199.843L54.4238 191.996L52.0228 190.505C51.6775 190.289 51.399 189.982 51.2185 189.618C51.038 189.253 50.9626 188.845 51.0008 188.44C51.0438 187.974 51.0578 187.507 51.0428 187.04C51.0335 186.634 51.1355 186.234 51.338 185.882C51.5404 185.53 51.8354 185.241 52.1908 185.045L54.6828 183.715L50.3148 175.574L47.8228 176.904C47.1228 177.296 54.4378 177.009 53.7588 176.54C53.3813 176.283 52.9886 176.049 52.5828 175.84C52.2245 175.647 51.9268 175.358 51.7228 175.006C51.5189 174.654 51.4168 174.252 51.4278 173.845L51.5188 171.045L42.2858 170.758L42.2018 173.558C42.1867 173.965 42.058 174.359 41.8304 174.697C41.6028 175.035 41.2853 175.302 40.9138 175.469C40.7108 175.56 40.5078 175.665 40.3118 175.77L39.7168 176.113C39.3724 176.324 38.9763 176.435 38.5723 176.435C38.1684 176.435 37.7723 176.324 37.4278 176.113L34.9988 174.636L30.0988 182.483L32.5068 183.974C32.8543 184.195 33.1332 184.509 33.3125 184.88C33.4918 185.251 33.5643 185.664 33.5218 186.074C33.4799 186.539 33.4636 187.007 33.4728 187.474C33.4855 187.878 33.3856 188.278 33.1841 188.63C32.9826 188.981 32.6876 189.269 32.3318 189.462L29.8398 190.799L34.2008 198.94L36.6928 197.603C37.052 197.414 37.4564 197.327 37.8615 197.353C38.2667 197.379 38.6568 197.516 38.9888 197.75C39.3648 198.005 39.7551 198.239 40.1578 198.45C40.5072 198.643 40.7978 198.927 40.9986 199.272C41.1995 199.618 41.3033 200.011 41.2988 200.41L41.2078 203.21L50.4408 203.497L50.5248 200.697C50.5443 200.289 50.678 199.895 50.9107 199.559C51.1434 199.224 51.4657 198.961 51.8408 198.8L52.4498 198.492L53.0378 198.156C53.7378 197.722 46.4088 197.918 47.1158 198.359L49.5238 199.843ZM49.9368 193.795C48.6178 194.502 47.1185 194.803 45.6288 194.658C44.139 194.513 42.7256 193.93 41.5673 192.982C40.409 192.034 39.558 190.763 39.1218 189.332C38.6856 187.9 38.6838 186.371 39.1167 184.938C39.5496 183.505 40.3977 182.233 41.5537 181.282C42.7098 180.331 44.1218 179.745 45.6113 179.597C47.1007 179.448 48.6006 179.745 49.9213 180.45C51.242 181.154 52.3242 182.234 53.0308 183.554C50.3498 178.556 36.3288 201.089 49.9368 193.795Z" fill="#ECECEC"/>
<path d="M119.924 28.1699L116.69 22.5699L114.975 23.5639C114.728 23.7064 114.447 23.7768 114.162 23.7669C113.877 23.757 113.601 23.6672 113.365 23.5079C113.094 23.3352 112.814 23.1742 112.525 23.0249C112.266 22.8953 112.049 22.6951 111.899 22.4473C111.749 22.1996 111.673 21.9144 111.678 21.6249V19.6719H105.203V21.6529C105.208 21.9424 105.132 22.2276 104.982 22.4753C104.832 22.7231 104.615 22.9233 104.356 23.0529C104.068 23.1987 103.787 23.3599 103.516 23.5359C103.28 23.6952 103.004 23.785 102.719 23.7949C102.434 23.8048 102.153 23.7344 101.906 23.5919L100.191 22.5979L96.957 28.1979L98.7 29.1639C98.9419 29.3054 99.1398 29.5111 99.272 29.7582C99.4042 30.0053 99.4655 30.2841 99.449 30.5639C99.449 30.7249 99.449 30.8859 99.449 31.0399C99.449 31.1939 99.449 31.3619 99.449 31.5159C99.4654 31.7948 99.4048 32.0729 99.274 32.3197C99.1431 32.5666 98.947 32.7728 98.707 32.9159L96.978 33.9169L100.212 39.5169L101.927 38.5299C102.175 38.3875 102.458 38.3173 102.744 38.3272C103.029 38.3371 103.307 38.4267 103.544 38.5859C103.813 38.7618 104.091 38.923 104.377 39.0689C104.636 39.1984 104.853 39.3987 105.003 39.6464C105.153 39.8942 105.23 40.1793 105.224 40.4689V42.4499H111.699V40.4759C111.694 40.1863 111.77 39.9012 111.92 39.6534C112.07 39.4057 112.287 39.2054 112.546 39.0759C112.832 38.93 113.11 38.7688 113.379 38.5929C113.617 38.4337 113.894 38.3441 114.18 38.3342C114.465 38.3243 114.748 38.3945 114.996 38.5369L116.711 39.5239L119.945 33.9239L118.223 32.9299C117.982 32.7877 117.784 32.5819 117.652 32.335C117.52 32.088 117.458 31.8095 117.474 31.5299C117.474 31.3689 117.474 31.2079 117.474 31.0469C117.474 30.8859 117.474 30.7319 117.474 30.5709C117.462 30.291 117.526 30.0132 117.659 29.7668C117.792 29.5203 117.99 29.3144 118.23 29.1709L119.924 28.1699ZM113.736 31.0609C113.736 32.1092 113.425 33.134 112.843 34.0056C112.26 34.8771 111.432 35.5563 110.463 35.9572C109.495 36.358 108.429 36.4626 107.401 36.2575C106.373 36.0525 105.428 35.5471 104.688 34.8054C103.947 34.0636 103.443 33.1187 103.239 32.0904C103.035 31.062 103.141 29.9963 103.543 29.0282C103.946 28.06 104.626 27.2329 105.498 26.6515C106.37 26.0701 107.396 25.7605 108.444 25.7619C109.14 25.7619 109.828 25.899 110.471 26.1654C111.113 26.4318 111.697 26.8222 112.189 27.3143C112.68 27.8065 113.07 28.3907 113.335 29.0336C113.601 29.6764 113.737 30.3653 113.736 31.0609Z" fill="#ECECEC"/>
<path d="M47.2558 212.295C36.4478 222.872 34.6558 239.238 36.9098 253.595C36.9728 253.924 37.4768 253.833 37.4768 253.525C37.4768 250.263 37.3718 247.029 37.3858 243.809C37.4418 243.655 37.4908 243.522 37.5538 243.375C40.3538 241.324 42.9648 239.007 44.5538 235.829C46.3528 232.28 47.0668 228.276 48.4458 224.573C48.5718 224.216 48.1938 224.321 47.9488 224.503C41.3758 229.354 39.2828 234.569 37.3928 241.541C37.433 237.894 37.815 234.259 38.5338 230.684C39.9338 224.069 42.7688 217.51 47.5218 212.603C47.7178 212.393 47.4378 212.099 47.2558 212.295Z" fill="#1A2E35"/>
<path d="M49.2857 213.499C51.1407 213.562 52.3097 216.537 53.7587 217.405C54.5217 217.86 47.0387 218.056 47.5777 217.3C48.9777 215.298 55.2777 212.603 53.4227 211.224C54.7457 211.763 47.6197 212.946 49.0477 213.212C49.2298 213.272 49.4227 213.293 49.6133 213.272C49.8039 213.251 49.9878 213.189 50.1524 213.091C50.3171 212.993 50.4587 212.86 50.5676 212.702C50.6765 212.544 50.7502 212.365 50.7837 212.176C51.4137 209.439 56.2157 207.976 53.8637 207.976C55.0047 207.185 50.0417 205.253 48.3057 204.196C46.5697 203.139 50.9447 205.988 49.7057 206.996C47.8717 208.487 45.6807 210.713 45.5967 213.044C45.4987 215.774 47.8507 214.101 49.2857 213.499Z" fill="#F7E09D"/>
<path d="M48.7478 213.989C51.1208 212.904 47.4598 214.689 47.8518 213.786C48.6358 211.952 53.2138 210.475 51.2468 210.23C53.0598 209.74 48.3068 209.18 48.2018 207.43C48.0688 205.295 51.0998 206.912 48.4678 208.928C45.1498 211.469 45.1708 213.926 45.7238 214.416C46.4728 215.088 48.3558 214.199 48.7478 213.989Z" fill="#F5EAC9"/>
<path d="M22.6448 211.253C33.8448 221.41 36.2808 237.692 34.5448 252.105C34.4958 252.434 33.9918 252.364 33.9778 252.056C33.8588 248.794 33.8308 245.56 33.6978 242.34L33.5158 241.913C30.6178 239.974 27.9158 237.755 26.2148 234.647C24.2758 231.147 23.4148 227.192 21.8958 223.545C21.7488 223.195 22.1338 223.279 22.3858 223.454C29.1408 228.046 31.4298 233.184 33.5858 240.079C33.4041 236.435 32.8814 232.817 32.0248 229.271C30.3658 222.719 27.2998 216.3 22.3998 211.547C22.1898 211.4 22.4488 211.071 22.6448 211.253Z" fill="#1A2E35"/>
<path d="M20.6625 212.562C18.8075 212.695 17.7575 215.705 16.3435 216.629C16.1955 216.764 16.0201 216.866 15.8293 216.928C15.6385 216.989 15.4368 217.009 15.2377 216.986C15.0386 216.962 14.8468 216.897 14.6753 216.793C14.5038 216.689 14.3565 216.55 14.2435 216.384C12.7315 214.438 14.6075 211.89 16.4065 210.441C15.1045 211.036 14.0405 212.03 12.6265 212.359C12.4459 212.426 12.253 212.452 12.0611 212.438C11.8691 212.423 11.6826 212.368 11.514 212.275C11.3454 212.182 11.1987 212.054 11.0839 211.899C10.9691 211.745 10.8889 211.567 10.8485 211.379C10.1135 208.677 13.4945 207.333 15.8395 207.179C14.6705 206.43 11.3245 204.379 13.0395 203.28C14.7545 202.181 18.7025 205.079 19.9905 206.045C21.8875 207.445 24.1905 209.608 24.3305 211.939C24.5545 214.662 22.1115 213.073 20.6625 212.562Z" fill="#F7E09D"/>
<path d="M21.2165 212.998C18.8015 212.011 14.3005 213.74 13.8735 212.851C13.0195 211.052 16.6175 209.659 18.5775 209.351C16.7435 208.924 13.2435 208.273 13.2855 206.551C13.3345 204.451 18.5985 206.054 21.3075 207.951C24.7165 210.366 24.8075 212.851 24.2615 213.334C23.5335 214.013 21.6155 213.159 21.2165 212.998Z" fill="#F5EAC9"/>
<path d="M34.0969 238.086C34.8652 243.52 36.0351 248.889 37.5969 254.151C37.6183 254.255 37.68 254.346 37.7686 254.404C37.8573 254.463 37.9654 254.484 38.0694 254.462C38.1734 254.441 38.2646 254.379 38.323 254.29C38.3814 254.202 38.4023 254.094 38.3809 253.99C37.6809 249.041 36.2809 244.19 35.5809 239.234C34.7766 234.225 34.4881 229.146 34.7199 224.079C35.1959 215.735 37.4569 206.859 42.9029 200.335C43.0219 200.181 42.7699 199.964 42.6439 200.104C31.7099 212.802 33.4459 228.391 33.4529 229.791C31.9129 224.527 30.3239 218.5 24.4859 213.138C24.2339 212.907 24.0379 213.019 24.0799 213.411C25.1229 223.169 27.8389 228.265 33.4949 233.48C33.6559 235.027 33.8519 236.602 34.0969 238.086Z" fill="#1A2E35"/>
<path d="M42.9629 201.797C44.9229 200.922 47.6249 203.421 49.5709 203.589C49.7903 203.642 50.0185 203.647 50.2403 203.606C50.4622 203.564 50.6727 203.476 50.8579 203.347C51.0431 203.218 51.1989 203.051 51.3149 202.857C51.4309 202.664 51.5045 202.448 51.5309 202.224C52.0139 199.424 48.7309 197.849 46.1059 197.324C47.7579 197.226 49.3819 197.667 51.0059 197.226C51.2211 197.193 51.4271 197.116 51.6106 196.999C51.7941 196.882 51.951 196.728 52.0711 196.546C52.1912 196.365 52.2718 196.16 52.3078 195.946C52.3438 195.731 52.3343 195.511 52.2799 195.301C51.5799 192.144 47.3799 192.613 44.9229 193.733C45.7069 192.333 48.0099 188.462 45.6789 188.238C43.3479 188.014 40.8909 193.138 40.0789 194.825C38.9239 197.296 37.7759 200.712 38.8609 203.169C40.1419 206.046 41.7659 203.106 42.9629 201.797Z" fill="#F7E09D"/>
<path d="M42.6337 202.538C44.5587 200.221 50.0747 199.535 50.0257 198.408C49.9207 196.112 45.5037 196.644 43.3407 197.386C44.9717 195.986 48.1847 193.403 47.1907 191.639C45.9867 189.49 41.5137 194.012 39.7987 197.435C37.6357 201.74 38.8957 204.274 39.7077 204.505C40.8277 204.827 42.3187 202.923 42.6337 202.538Z" fill="#F5EAC9"/>
<path d="M26.9262 241.019L22.1172 277.748H51.3702C50.7682 274.493 45.3222 240.977 45.3222 240.977L26.9262 241.019Z" fill="#F5EAC9"/>
<path d="M1.43359 278.088L44.1476 277.92L86.8546 277.857L172.283 277.738L257.704 277.857L300.418 277.913L343.125 278.088L300.418 278.256L257.704 278.319L172.283 278.438L86.8546 278.319L44.1476 278.256L1.43359 278.088Z" fill="#1A2E35"/>
<path d="M172.285 349.998C240.35 349.998 295.527 342.198 295.527 332.575C295.527 322.953 240.35 315.152 172.285 315.152C104.22 315.152 49.043 322.953 49.043 332.575C49.043 342.198 104.22 349.998 172.285 349.998Z" fill="#EAECF2"/>
<path d="M178.779 220.793H149.414V223.201H178.779V220.793Z" fill="#747474"/>
<path d="M178.779 223.922H149.414V226.33H178.779V223.922Z" fill="#747474"/>
<path d="M178.779 227.059H149.414V229.467H178.779V227.059Z" fill="#747474"/>
<path d="M178.779 230.188H149.414V232.596H178.779V230.188Z" fill="#747474"/>
<path d="M178.779 233.324H149.414V235.732H178.779V233.324Z" fill="#2B454E"/>
<path d="M191.493 295.828H135.668V298.236H191.493V295.828Z" fill="#2B454E"/>
<path d="M191.493 298.957H135.668V301.365H191.493V298.957Z" fill="#2B454E"/>
<path d="M191.493 302.094H135.668V304.502H191.493V302.094Z" fill="#747474"/>
<path d="M191.493 305.223H135.668V307.631H191.493V305.223Z" fill="#747474"/>
<path d="M191.493 308.355H135.668V310.763H191.493V308.355Z" fill="#747474"/>
<path d="M111.175 200.899C111.175 200.577 98.9531 196.475 98.9531 196.475L99.6531 154.398L115.886 150.898L111.175 200.899Z" fill="#A29FE4"/>
<path d="M223.336 217.418C223.427 217.103 236.335 217.467 236.335 217.467L250.132 177.714L236.09 168.859L223.336 217.418Z" fill="#A29FE4"/>
<path d="M108.816 216.399C108.816 216.399 113.359 148.352 117.342 125.973C117.342 125.973 199.543 132.189 243.916 149.15C243.916 149.15 221.04 228.628 219.857 232.576C219.857 232.576 161.967 221.201 108.816 216.399Z" fill="#C0BDF8"/>
<path opacity="0.1" d="M182.189 135.059C180.854 143.249 179.492 151.436 178.101 159.622L173.866 184.164L173.635 183.814L201.18 190.359L214.935 193.691L228.676 197.093L214.858 193.999L201.061 190.842L173.495 184.402L173.215 184.339L173.264 184.059L177.653 159.559C179.151 151.383 180.663 143.216 182.189 135.059Z" fill="black"/>
<path opacity="0.1" d="M179.2 139.725C179.199 140.122 179.051 140.505 178.784 140.8C178.518 141.094 178.153 141.28 177.758 141.321C177.54 141.341 177.321 141.318 177.113 141.252C176.905 141.186 176.713 141.078 176.547 140.936C176.378 140.783 176.243 140.596 176.151 140.387C176.058 140.179 176.009 139.954 176.008 139.725C176.008 139.497 176.056 139.271 176.149 139.063C176.242 138.854 176.377 138.667 176.547 138.514C176.883 138.229 177.318 138.088 177.758 138.122C178.153 138.165 178.519 138.353 178.785 138.648C179.051 138.944 179.199 139.328 179.2 139.725ZM179.2 139.725C179.2 139.537 179.159 139.35 179.08 139.179C179.002 139.007 178.887 138.855 178.745 138.731C178.59 138.603 178.407 138.513 178.212 138.467C178.016 138.421 177.812 138.422 177.617 138.469C177.421 138.516 177.239 138.608 177.085 138.737C176.931 138.866 176.81 139.03 176.73 139.214C176.65 139.399 176.614 139.599 176.625 139.8C176.636 140.001 176.694 140.196 176.794 140.371C176.894 140.545 177.033 140.694 177.2 140.806C177.367 140.917 177.558 140.988 177.758 141.013C177.934 141.035 178.113 141.019 178.283 140.967C178.453 140.915 178.61 140.829 178.745 140.712C178.888 140.591 179.002 140.439 179.081 140.269C179.159 140.098 179.2 139.913 179.2 139.725Z" fill="black"/>
<path opacity="0.1" d="M177.724 149.85C177.724 150.249 177.577 150.633 177.311 150.929C177.044 151.225 176.678 151.412 176.282 151.453C175.946 151.481 175.61 151.403 175.321 151.23C175.032 151.057 174.805 150.797 174.671 150.488C174.538 150.179 174.504 149.836 174.576 149.507C174.648 149.177 174.821 148.879 175.071 148.653C175.303 148.452 175.588 148.322 175.892 148.278C176.196 148.234 176.507 148.279 176.786 148.406C177.066 148.534 177.303 148.739 177.469 148.998C177.635 149.256 177.724 149.557 177.724 149.864V149.85ZM177.724 149.85C177.722 149.663 177.681 149.478 177.603 149.308C177.524 149.138 177.41 148.986 177.269 148.863C177.132 148.75 176.975 148.665 176.806 148.613C176.636 148.562 176.458 148.544 176.282 148.562C175.969 148.603 175.681 148.756 175.472 148.993C175.264 149.23 175.148 149.535 175.148 149.85C175.149 150.093 175.219 150.331 175.349 150.536C175.479 150.741 175.665 150.905 175.885 151.009C176.104 151.113 176.349 151.153 176.59 151.123C176.831 151.094 177.059 150.998 177.248 150.844C177.393 150.722 177.511 150.571 177.593 150.399C177.676 150.228 177.72 150.041 177.724 149.85Z" fill="black"/>
<path opacity="0.1" d="M175.944 160.551C175.943 160.948 175.795 161.33 175.529 161.625C175.263 161.92 174.897 162.105 174.502 162.147C174.284 162.166 174.065 162.141 173.857 162.073C173.649 162.006 173.457 161.898 173.291 161.755C173.12 161.604 172.983 161.418 172.889 161.21C172.795 161.002 172.746 160.776 172.746 160.547C172.746 160.319 172.795 160.093 172.889 159.885C172.983 159.677 173.12 159.491 173.291 159.34C173.456 159.196 173.649 159.088 173.857 159.02C174.065 158.953 174.284 158.928 174.502 158.948C174.898 158.989 175.265 159.176 175.531 159.472C175.797 159.768 175.945 160.153 175.944 160.551ZM175.944 160.551C175.945 160.368 175.908 160.187 175.834 160.02C175.76 159.852 175.651 159.703 175.514 159.581C175.378 159.459 175.217 159.368 175.042 159.313C174.868 159.258 174.684 159.241 174.502 159.263C174.184 159.296 173.889 159.446 173.675 159.684C173.46 159.922 173.342 160.231 173.342 160.551C173.342 160.871 173.46 161.18 173.675 161.418C173.889 161.656 174.184 161.806 174.502 161.839C174.678 161.857 174.857 161.84 175.026 161.788C175.196 161.736 175.353 161.651 175.489 161.538C175.632 161.416 175.747 161.265 175.825 161.094C175.904 160.924 175.944 160.739 175.944 160.551Z" fill="black"/>
<path opacity="0.1" d="M174.167 171.249C174.166 171.646 174.018 172.029 173.752 172.323C173.486 172.618 173.12 172.804 172.725 172.845C172.508 172.865 172.289 172.841 172.081 172.775C171.873 172.709 171.68 172.602 171.514 172.46C171.343 172.308 171.205 172.122 171.111 171.913C171.017 171.704 170.969 171.478 170.969 171.249C170.969 171.02 171.017 170.794 171.111 170.585C171.205 170.376 171.343 170.19 171.514 170.038C171.68 169.896 171.873 169.789 172.081 169.721C172.288 169.654 172.508 169.628 172.725 169.646C173.121 169.689 173.486 169.876 173.752 170.172C174.018 170.468 174.166 170.851 174.167 171.249ZM174.167 171.249C174.167 171.061 174.127 170.876 174.048 170.705C173.97 170.535 173.855 170.384 173.712 170.262C173.578 170.146 173.421 170.059 173.251 170.007C173.081 169.955 172.902 169.94 172.725 169.961C172.407 169.994 172.112 170.144 171.898 170.382C171.683 170.62 171.565 170.929 171.565 171.249C171.565 171.569 171.683 171.878 171.898 172.116C172.112 172.354 172.407 172.504 172.725 172.537C172.902 172.558 173.081 172.543 173.251 172.491C173.421 172.439 173.578 172.352 173.712 172.236C173.855 172.114 173.97 171.963 174.048 171.793C174.127 171.622 174.167 171.437 174.167 171.249Z" fill="black"/>
<path opacity="0.1" d="M180.223 188.3C180.225 188.699 180.079 189.084 179.812 189.38C179.546 189.677 179.178 189.863 178.781 189.903C178.342 189.937 177.907 189.796 177.57 189.511C177.401 189.358 177.265 189.172 177.172 188.963C177.08 188.754 177.031 188.529 177.031 188.3C177.028 188.076 177.072 187.854 177.161 187.649C177.25 187.444 177.382 187.259 177.547 187.108C177.713 186.958 177.908 186.844 178.121 186.774C178.334 186.704 178.559 186.68 178.781 186.704C179.177 186.744 179.543 186.93 179.81 187.225C180.076 187.519 180.224 187.903 180.223 188.3ZM180.223 188.3C180.224 188.113 180.184 187.928 180.106 187.758C180.029 187.588 179.916 187.436 179.775 187.313C179.497 187.085 179.14 186.977 178.781 187.012C178.582 187.038 178.392 187.11 178.226 187.223C178.06 187.335 177.922 187.484 177.823 187.659C177.724 187.833 177.667 188.029 177.657 188.229C177.647 188.429 177.683 188.629 177.763 188.813C177.843 188.997 177.965 189.16 178.119 189.289C178.272 189.418 178.454 189.509 178.649 189.556C178.844 189.602 179.048 189.603 179.243 189.558C179.439 189.512 179.621 189.422 179.775 189.294C179.916 189.17 180.029 189.017 180.107 188.846C180.184 188.674 180.224 188.488 180.223 188.3Z" fill="black"/>
<path opacity="0.1" d="M190.323 190.771C190.324 191.168 190.176 191.552 189.91 191.846C189.643 192.141 189.277 192.327 188.881 192.367C188.664 192.387 188.445 192.363 188.237 192.297C188.029 192.231 187.836 192.124 187.67 191.982C187.499 191.83 187.362 191.644 187.268 191.435C187.174 191.226 187.125 191 187.125 190.771C187.125 190.542 187.174 190.315 187.268 190.107C187.362 189.898 187.499 189.711 187.67 189.56C187.903 189.358 188.188 189.228 188.492 189.184C188.796 189.141 189.107 189.185 189.386 189.313C189.666 189.44 189.903 189.646 190.069 189.904C190.235 190.163 190.323 190.463 190.323 190.771ZM190.323 190.771C190.322 190.583 190.281 190.398 190.203 190.228C190.124 190.058 190.01 189.906 189.868 189.784C189.732 189.67 189.575 189.585 189.405 189.534C189.236 189.482 189.058 189.465 188.881 189.483C188.568 189.523 188.281 189.677 188.072 189.913C187.864 190.15 187.748 190.455 187.747 190.771C187.749 191.014 187.818 191.251 187.949 191.456C188.079 191.661 188.265 191.825 188.484 191.929C188.704 192.033 188.949 192.073 189.19 192.044C189.431 192.015 189.659 191.918 189.847 191.765C189.993 191.642 190.11 191.49 190.192 191.319C190.274 191.147 190.319 190.961 190.323 190.771Z" fill="black"/>
<path opacity="0.1" d="M200.425 193.236C200.44 193.455 200.409 193.674 200.335 193.881C200.261 194.087 200.146 194.277 199.996 194.437C199.846 194.597 199.665 194.725 199.463 194.812C199.262 194.899 199.045 194.944 198.826 194.944C198.606 194.944 198.389 194.899 198.188 194.812C197.987 194.725 197.805 194.597 197.655 194.437C197.505 194.277 197.39 194.087 197.316 193.881C197.242 193.674 197.212 193.455 197.226 193.236C197.228 193.007 197.277 192.781 197.371 192.572C197.465 192.364 197.602 192.177 197.772 192.025C198.004 191.823 198.29 191.693 198.594 191.649C198.898 191.605 199.208 191.65 199.488 191.778C199.767 191.905 200.004 192.11 200.171 192.369C200.337 192.627 200.425 192.928 200.425 193.236ZM200.425 193.236C200.422 193.048 200.38 192.864 200.302 192.694C200.224 192.524 200.111 192.372 199.97 192.249C199.692 192.021 199.334 191.912 198.976 191.948C198.777 191.974 198.587 192.046 198.421 192.158C198.254 192.27 198.116 192.419 198.018 192.594C197.919 192.769 197.862 192.964 197.852 193.164C197.841 193.365 197.878 193.565 197.958 193.749C198.038 193.933 198.16 194.095 198.313 194.224C198.467 194.353 198.649 194.444 198.844 194.491C199.039 194.538 199.242 194.538 199.438 194.493C199.633 194.448 199.816 194.357 199.97 194.23C200.109 194.103 200.221 193.95 200.299 193.779C200.377 193.608 200.42 193.423 200.425 193.236Z" fill="black"/>
<path opacity="0.1" d="M210.519 195.701C210.519 196.098 210.372 196.482 210.105 196.776C209.839 197.071 209.472 197.257 209.077 197.297C208.855 197.317 208.631 197.292 208.419 197.221C208.207 197.15 208.013 197.036 207.848 196.886C207.683 196.736 207.551 196.553 207.461 196.349C207.371 196.144 207.324 195.924 207.324 195.701C207.324 195.478 207.371 195.257 207.461 195.053C207.551 194.849 207.683 194.666 207.848 194.515C208.013 194.365 208.207 194.251 208.419 194.18C208.631 194.11 208.855 194.084 209.077 194.105C209.472 194.145 209.839 194.33 210.105 194.625C210.372 194.92 210.519 195.303 210.519 195.701ZM210.519 195.701C210.517 195.453 210.444 195.211 210.308 195.004C210.172 194.796 209.979 194.633 209.753 194.532C209.526 194.432 209.276 194.399 209.031 194.438C208.786 194.476 208.558 194.584 208.373 194.749C208.188 194.914 208.055 195.129 207.989 195.368C207.923 195.607 207.928 195.86 208.002 196.096C208.076 196.333 208.217 196.542 208.408 196.701C208.599 196.859 208.831 196.959 209.077 196.989C209.254 197.009 209.433 196.994 209.604 196.943C209.775 196.893 209.933 196.808 210.071 196.695C210.211 196.57 210.324 196.417 210.401 196.245C210.478 196.074 210.518 195.889 210.519 195.701Z" fill="black"/>
<path opacity="0.1" d="M220.613 198.277C220.592 198.584 220.482 198.879 220.297 199.125C220.111 199.372 219.859 199.559 219.569 199.665C219.28 199.771 218.966 199.79 218.666 199.722C218.365 199.653 218.091 199.499 217.876 199.278C217.643 199.036 217.491 198.726 217.443 198.393C217.394 198.06 217.451 197.721 217.605 197.422C217.76 197.123 218.004 196.88 218.304 196.727C218.604 196.574 218.944 196.519 219.276 196.569C219.673 196.634 220.03 196.846 220.278 197.162C220.525 197.479 220.645 197.876 220.613 198.277ZM220.613 198.277C220.631 198.094 220.608 197.91 220.548 197.736C220.488 197.563 220.391 197.404 220.264 197.272C220.138 197.139 219.984 197.035 219.813 196.967C219.643 196.899 219.46 196.868 219.276 196.877C218.956 196.885 218.65 197.012 218.418 197.233C218.185 197.454 218.043 197.753 218.019 198.073C217.995 198.393 218.09 198.71 218.286 198.963C218.482 199.217 218.765 199.389 219.08 199.446C219.255 199.478 219.434 199.475 219.607 199.436C219.78 199.398 219.944 199.325 220.088 199.222C220.238 199.111 220.363 198.969 220.454 198.806C220.544 198.643 220.599 198.463 220.613 198.277Z" fill="black"/>
<path opacity="0.1" d="M172.39 181.943C172.392 182.341 172.245 182.725 171.979 183.02C171.712 183.315 171.344 183.5 170.948 183.539C170.731 183.559 170.512 183.535 170.304 183.469C170.096 183.403 169.903 183.296 169.737 183.154C169.568 183 169.432 182.813 169.338 182.605C169.245 182.397 169.194 182.171 169.191 181.943C169.196 181.714 169.246 181.489 169.34 181.281C169.434 181.073 169.569 180.886 169.737 180.732C169.97 180.53 170.255 180.4 170.559 180.356C170.863 180.312 171.173 180.357 171.453 180.485C171.733 180.612 171.97 180.817 172.136 181.076C172.302 181.334 172.39 181.635 172.39 181.943ZM172.39 181.943C172.391 181.755 172.35 181.569 172.271 181.399C172.193 181.229 172.078 181.077 171.935 180.956C171.799 180.842 171.642 180.757 171.472 180.705C171.303 180.654 171.125 180.636 170.948 180.655C170.636 180.697 170.349 180.85 170.141 181.087C169.933 181.323 169.817 181.627 169.814 181.943C169.815 182.186 169.885 182.423 170.016 182.628C170.146 182.833 170.332 182.997 170.551 183.101C170.771 183.205 171.015 183.245 171.257 183.216C171.498 183.186 171.726 183.09 171.914 182.937C172.061 182.815 172.18 182.664 172.262 182.492C172.344 182.32 172.388 182.133 172.39 181.943Z" fill="black"/>
<path d="M155.393 199.673C164.981 191.053 165.765 176.292 157.144 166.705C148.524 157.117 133.763 156.333 124.176 164.954C114.589 173.574 113.805 188.335 122.425 197.922C131.046 207.51 145.806 208.293 155.393 199.673Z" fill="#D2D0FF" fill-opacity="0.5"/>
<path d="M157.683 187.465C161.301 177.747 156.356 166.937 146.639 163.318C136.922 159.7 126.111 164.645 122.493 174.362C118.875 184.08 123.819 194.89 133.536 198.508C143.254 202.127 154.064 197.182 157.683 187.465Z" fill="white"/>
<path d="M139.027 175.955L134.641 175.246L133.932 179.633L138.318 180.342L139.027 175.955Z" fill="#8986C2"/>
<path d="M134.983 170.353L130.609 169.645L129.901 174.019L134.275 174.727L134.983 170.353Z" fill="#8986C2"/>
<path d="M152.491 173.185L148.117 172.477L147.409 176.851L151.783 177.559L152.491 173.185Z" fill="#8986C2"/>
<path d="M132.52 188.311L128.133 187.602L127.424 191.988L131.811 192.697L132.52 188.311Z" fill="#8986C2"/>
<path d="M149.675 190.599L145.301 189.891L144.592 194.265L148.966 194.973L149.675 190.599Z" fill="#8986C2"/>
<path d="M137.621 184.635L133.234 183.926L132.525 188.312L136.912 189.021L137.621 184.635Z" fill="#8986C2"/>
<path d="M142.327 180.474L137.953 179.766L137.245 184.14L141.619 184.848L142.327 180.474Z" fill="#8986C2"/>
<path d="M147.805 177.377L143.418 176.668L142.709 181.055L147.096 181.764L147.805 177.377Z" fill="#8986C2"/>
<path d="M146.007 185.505L141.633 184.797L140.924 189.171L145.298 189.879L146.007 185.505Z" fill="#8986C2"/>
<path d="M220.473 206.882C228.645 196.909 227.184 182.2 217.212 174.028C207.239 165.857 192.53 167.317 184.358 177.29C176.187 187.263 177.647 201.972 187.62 210.143C197.593 218.315 212.302 216.854 220.473 206.882Z" fill="#D2D0FF"/>
<path opacity="0.2" d="M225.133 197.497C225.021 197.952 224.902 198.4 224.762 198.841L179.262 189.139C179.374 188.327 179.521 187.515 179.71 186.696C181.165 180.697 184.937 175.519 190.201 172.294C195.465 169.069 201.792 168.061 207.797 169.489C213.803 170.917 218.998 174.665 222.247 179.914C225.496 185.163 226.533 191.485 225.133 197.497Z" fill="black"/>
<path d="M209.643 209.343C219.181 205.357 223.682 194.394 219.696 184.855C215.71 175.317 204.746 170.816 195.208 174.802C185.67 178.788 181.169 189.752 185.155 199.29C189.141 208.828 200.105 213.329 209.643 209.343Z" fill="#FBFEFF"/>
<path d="M207.127 181.872L202.816 180.848L197.714 202.314L202.025 203.338L207.127 181.872Z" fill="#8986C2"/>
<path d="M226.484 197.055L178.695 185.701C180.289 179.457 184.272 174.089 189.786 170.755C195.3 167.421 201.904 166.387 208.174 167.876C214.443 169.366 219.876 173.259 223.301 178.718C226.727 184.176 227.87 190.762 226.484 197.055Z" fill="#D2D0FF"/>
<path d="M161.805 205.97C161.911 204.025 162.674 202.175 163.968 200.72C164.658 199.949 165.528 199.362 166.502 199.012C167.484 198.676 168.528 198.559 169.561 198.669C170.622 198.779 171.634 199.171 172.494 199.803C173.316 200.446 173.96 201.289 174.363 202.253C175.093 204.048 175.261 206.023 174.846 207.916C174.607 206.139 174.049 204.42 173.201 202.841C172.821 202.138 172.275 201.541 171.609 201.1C170.944 200.659 170.18 200.389 169.386 200.314C168.579 200.202 167.758 200.263 166.976 200.491C166.195 200.719 165.47 201.109 164.85 201.637C163.533 202.844 162.494 204.322 161.805 205.97Z" fill="white"/>
<path d="M115.215 158.362C115.404 155.87 115.684 153.385 115.915 150.9C116.146 148.415 116.454 145.93 116.755 143.452C117.056 140.974 117.364 138.496 117.686 136.018C118.008 133.54 118.386 131.069 118.687 128.598L118.771 127.898L119.471 127.947C124.861 128.283 130.228 128.724 135.571 129.27C138.25 129.546 140.928 129.856 143.607 130.201C146.281 130.586 148.955 130.901 151.615 131.426L135.473 130.425L119.373 129.382L120.136 128.766C119.765 131.237 119.436 133.708 119.037 136.172C118.638 138.636 118.281 141.072 117.868 143.571C117.455 146.07 117.049 148.471 116.615 150.956C116.181 153.441 115.719 155.912 115.215 158.362Z" fill="white"/>
<path d="M119.09 177.225C119.688 174.197 120.966 171.344 122.828 168.881C123.283 168.258 123.801 167.677 124.298 167.082C124.795 166.487 125.397 165.99 125.957 165.437C126.517 164.884 127.168 164.464 127.791 163.988C128.414 163.512 129.1 163.134 129.772 162.735C130.444 162.336 131.172 162.035 131.872 161.727L134.091 160.957L136.387 160.481C137.157 160.369 137.941 160.348 138.711 160.292C141.793 160.241 144.853 160.828 147.699 162.014C144.771 161.4 141.771 161.2 138.788 161.419C135.86 161.685 133.021 162.568 130.458 164.009C127.881 165.448 125.589 167.346 123.696 169.609C121.756 171.88 120.201 174.453 119.09 177.225Z" fill="white"/>
<path d="M183.484 183.534C184.494 180.617 186.153 177.967 188.335 175.785C188.867 175.225 189.462 174.728 190.043 174.21C190.624 173.692 191.282 173.272 191.905 172.81C192.528 172.348 193.242 172.005 193.921 171.627C194.6 171.249 195.321 170.927 196.056 170.654C196.791 170.381 197.547 170.171 198.296 169.954L200.599 169.499L202.937 169.352C203.714 169.352 204.491 169.429 205.268 169.478C208.329 169.855 211.278 170.858 213.934 172.425C211.116 171.416 208.171 170.803 205.184 170.605C202.25 170.462 199.319 170.939 196.581 172.005C193.834 173.07 191.303 174.626 189.112 176.597C186.871 178.587 184.97 180.93 183.484 183.534Z" fill="white"/>
<path d="M111.426 258.336C105.448 258.336 92.3581 256.992 83.9371 246.163C73.1571 232.303 77.0491 205.717 77.2241 204.59L81.9001 205.29C81.9001 205.542 78.1411 230.994 87.6681 243.244C96.9851 255.214 113.876 253.499 114.044 253.478L114.576 258.175C113.53 258.285 112.478 258.339 111.426 258.336Z" fill="#C0BDF8"/>
<path d="M83.3013 208.524C82.4266 208.519 81.5536 208.447 80.6903 208.307C72.8013 207.026 69.3013 202.301 67.7403 198.57C66.1793 194.839 65.8363 190.289 66.6763 185.102L76.6863 186.726C76.1683 189.939 76.3153 192.774 77.1133 194.699C77.6803 196.099 78.7793 197.73 82.2933 198.297C83.8893 198.556 85.6253 198.416 87.4383 195.686C88.7148 193.6 89.5753 191.287 89.9722 188.875L99.9823 190.499C99.3505 194.329 97.9633 197.996 95.9013 201.286C92.7583 206.011 88.3413 208.524 83.3013 208.524Z" fill="#A29FE4"/>
<path d="M121.316 271.881C121.316 271.664 112.832 270.313 112.832 270.313L108.723 242.691L118.999 238.645L121.316 271.881Z" fill="#A29FE4"/>
<path d="M204.988 271.928C204.988 271.711 213.5 270.528 213.5 270.528L218.218 243.004L208.061 238.734L204.988 271.928Z" fill="#A29FE4"/>
<path d="M117.798 232.458C117.798 232.458 186.244 229.532 209.365 233.389C209.365 233.389 202.575 299.623 202.211 300.904C202.211 300.904 134.122 300.722 123.475 300.904C123.475 300.904 117.707 256.86 117.798 232.458Z" fill="#C0BDF8"/>
<path opacity="0.2" d="M138.602 250.599C138.602 250.599 175.968 249.122 188.589 251.068C188.589 251.068 184.886 284.465 184.683 285.116C184.683 285.116 147.513 285.018 141.703 285.116C141.689 285.123 139.134 262.261 138.602 250.599Z" fill="black"/>
<path opacity="0.2" d="M143.698 285.11H141.689C141.689 285.11 139.134 262.262 138.602 250.6L140.933 250.516L143.698 285.11Z" fill="black"/>
<path d="M207.719 293.196L210.344 293.686L217.869 242.733L214.873 242.18L207.719 293.196Z" fill="#C0BDF8"/>
<path d="M184.668 285.123L188.574 251.075L214.901 242.199C214.901 242.199 207.747 293.768 207.747 293.215L184.668 285.123Z" fill="#D2D0FF"/>
<path d="M120.93 252.457C120.503 249.657 120.272 246.794 120.097 243.945C120.02 242.545 119.978 241.096 119.95 239.668C119.922 238.24 119.894 236.819 119.95 235.391V235.02H120.314C125.536 234.74 130.758 234.397 135.987 234.166C141.216 233.935 146.438 233.676 151.667 233.508C146.452 233.984 141.237 234.383 136.022 234.761C130.807 235.139 125.585 235.461 120.363 235.818L120.741 235.426V239.682L120.79 243.945C120.79 245.345 120.816 246.766 120.867 248.208L120.93 252.457Z" fill="white"/>
<path d="M192.242 251.573C193.876 250.803 195.53 250.084 197.205 249.417C198.871 248.717 200.558 248.094 202.259 247.506C203.96 246.918 205.682 246.351 207.418 245.868C209.155 245.357 210.92 244.943 212.703 244.629L213.144 244.559L213.067 244.979C212.654 247.184 212.22 249.382 211.709 251.573C211.905 249.333 212.171 247.107 212.465 244.881L212.822 245.231C211.086 245.644 209.364 246.134 207.642 246.631C205.92 247.128 204.219 247.688 202.511 248.241L192.242 251.573Z" fill="white"/>
<path opacity="0.1" d="M132.312 232.598L132.753 241.11L133.131 249.629L133.79 266.667L134.307 283.712L134.51 292.238L134.65 300.764L134.209 292.252L133.831 283.733L133.173 266.695L132.662 249.65L132.452 241.124L132.312 232.598Z" fill="black"/>
<path opacity="0.1" d="M129.878 237.729C129.955 238.119 129.885 238.524 129.683 238.866C129.48 239.208 129.158 239.464 128.779 239.584C128.568 239.645 128.348 239.663 128.13 239.638C127.913 239.613 127.703 239.544 127.512 239.437C127.279 239.304 127.083 239.114 126.942 238.886C126.801 238.658 126.72 238.398 126.705 238.13C126.691 237.862 126.744 237.595 126.86 237.353C126.976 237.111 127.15 236.902 127.368 236.745C127.585 236.588 127.839 236.488 128.105 236.454C128.371 236.42 128.641 236.454 128.891 236.552C129.141 236.65 129.362 236.809 129.535 237.015C129.707 237.22 129.825 237.466 129.878 237.729ZM129.878 237.729C129.835 237.546 129.756 237.374 129.645 237.222C129.535 237.071 129.395 236.943 129.234 236.847C129.077 236.764 128.905 236.713 128.728 236.697C128.552 236.682 128.374 236.702 128.205 236.756C127.905 236.855 127.653 237.062 127.495 237.335C127.338 237.609 127.287 237.931 127.351 238.24C127.413 238.55 127.586 238.826 127.837 239.018C128.088 239.21 128.4 239.304 128.716 239.283C129.072 239.246 129.399 239.07 129.626 238.793C129.74 238.643 129.821 238.471 129.865 238.288C129.908 238.104 129.913 237.914 129.878 237.729Z" fill="black"/>
<path opacity="0.1" d="M130.46 247.941C130.523 248.242 130.497 248.555 130.386 248.842C130.274 249.129 130.083 249.378 129.833 249.559C129.584 249.739 129.288 249.844 128.98 249.86C128.673 249.876 128.368 249.803 128.101 249.649C127.805 249.481 127.57 249.224 127.431 248.914C127.291 248.604 127.253 248.257 127.324 247.924C127.394 247.592 127.568 247.29 127.821 247.062C128.074 246.835 128.392 246.694 128.731 246.66C129.127 246.621 129.523 246.731 129.842 246.967C130.162 247.204 130.382 247.551 130.46 247.941ZM130.46 247.941C130.425 247.762 130.353 247.591 130.247 247.442C130.142 247.293 130.006 247.167 129.848 247.075C129.691 246.982 129.515 246.924 129.333 246.904C129.151 246.885 128.968 246.904 128.794 246.961C128.554 247.037 128.34 247.18 128.18 247.375C128.02 247.569 127.919 247.805 127.891 248.056C127.862 248.306 127.907 248.559 128.019 248.784C128.132 249.01 128.307 249.198 128.524 249.325C128.741 249.453 128.991 249.515 129.242 249.504C129.494 249.493 129.737 249.409 129.942 249.262C130.147 249.116 130.305 248.913 130.397 248.678C130.489 248.444 130.511 248.188 130.46 247.941Z" fill="black"/>
<path opacity="0.1" d="M130.835 258.777C130.912 259.167 130.843 259.572 130.64 259.914C130.437 260.256 130.116 260.512 129.736 260.631C129.526 260.693 129.306 260.711 129.088 260.686C128.87 260.661 128.66 260.592 128.469 260.485C128.271 260.37 128.1 260.215 127.967 260.029C127.834 259.843 127.743 259.631 127.699 259.406C127.658 259.201 127.658 258.989 127.698 258.782C127.739 258.576 127.819 258.38 127.936 258.206C128.052 258.031 128.202 257.88 128.376 257.763C128.551 257.646 128.746 257.565 128.952 257.524C129.158 257.482 129.37 257.482 129.576 257.522C129.782 257.563 129.978 257.644 130.153 257.76C130.328 257.876 130.478 258.026 130.595 258.2C130.712 258.375 130.794 258.571 130.835 258.777ZM130.835 258.777C130.793 258.594 130.713 258.422 130.603 258.27C130.492 258.119 130.352 257.991 130.191 257.895C130.035 257.811 129.863 257.761 129.686 257.745C129.509 257.729 129.331 257.749 129.162 257.804C128.863 257.903 128.61 258.11 128.453 258.383C128.296 258.657 128.244 258.978 128.308 259.288C128.37 259.597 128.543 259.874 128.794 260.066C129.046 260.258 129.358 260.352 129.673 260.331C130.029 260.293 130.356 260.117 130.583 259.841C130.698 259.691 130.779 259.519 130.822 259.335C130.866 259.152 130.87 258.962 130.835 258.777Z" fill="black"/>
<path opacity="0.1" d="M131.207 269.619C131.284 270.009 131.214 270.413 131.011 270.754C130.808 271.095 130.487 271.349 130.108 271.467C129.892 271.537 129.664 271.56 129.439 271.535C129.214 271.511 128.997 271.439 128.801 271.325C128.605 271.21 128.436 271.056 128.304 270.872C128.173 270.687 128.081 270.477 128.036 270.255C127.991 270.033 127.993 269.804 128.043 269.583C128.092 269.362 128.188 269.154 128.323 268.973C128.459 268.791 128.631 268.64 128.829 268.529C129.026 268.419 129.245 268.351 129.471 268.331C129.868 268.294 130.265 268.405 130.586 268.643C130.906 268.88 131.127 269.228 131.207 269.619ZM131.207 269.619C131.148 269.33 130.993 269.069 130.766 268.88C130.54 268.691 130.255 268.586 129.96 268.58C129.665 268.575 129.377 268.671 129.144 268.852C128.911 269.033 128.746 269.288 128.678 269.575C128.609 269.862 128.641 270.164 128.767 270.43C128.894 270.697 129.108 270.912 129.373 271.041C129.639 271.17 129.941 271.203 130.228 271.137C130.516 271.071 130.772 270.908 130.955 270.676C131.07 270.528 131.152 270.357 131.195 270.175C131.238 269.993 131.242 269.803 131.207 269.619Z" fill="black"/>
<path opacity="0.1" d="M131.601 280.454C131.664 280.755 131.638 281.068 131.527 281.355C131.415 281.642 131.224 281.891 130.974 282.071C130.725 282.252 130.429 282.357 130.121 282.373C129.814 282.389 129.509 282.315 129.242 282.162C129.044 282.047 128.872 281.892 128.738 281.706C128.605 281.52 128.512 281.308 128.466 281.084C128.42 280.86 128.423 280.628 128.473 280.405C128.524 280.182 128.621 279.972 128.759 279.789C128.947 279.545 129.201 279.36 129.491 279.257C129.781 279.154 130.094 279.136 130.394 279.206C130.694 279.276 130.967 279.431 131.181 279.653C131.395 279.874 131.541 280.152 131.601 280.454ZM131.601 280.454C131.565 280.274 131.492 280.104 131.386 279.954C131.28 279.805 131.143 279.68 130.985 279.587C130.827 279.495 130.651 279.437 130.469 279.417C130.286 279.398 130.102 279.417 129.928 279.474C129.734 279.534 129.556 279.638 129.41 279.779C129.264 279.92 129.153 280.094 129.086 280.286C129.019 280.478 128.999 280.683 129.026 280.884C129.053 281.085 129.127 281.278 129.242 281.445C129.357 281.612 129.51 281.75 129.688 281.848C129.866 281.945 130.065 281.999 130.268 282.006C130.471 282.012 130.673 281.971 130.857 281.885C131.041 281.799 131.202 281.671 131.328 281.511C131.446 281.364 131.532 281.194 131.579 281.012C131.626 280.83 131.634 280.639 131.601 280.454Z" fill="black"/>
<path opacity="0.1" d="M131.949 291.29C132.026 291.68 131.956 292.085 131.754 292.427C131.551 292.769 131.229 293.025 130.85 293.145C130.633 293.21 130.405 293.23 130.18 293.202C129.956 293.173 129.739 293.098 129.546 292.98C129.352 292.863 129.186 292.705 129.057 292.519C128.928 292.333 128.84 292.121 128.799 291.899C128.756 291.674 128.76 291.443 128.811 291.22C128.861 290.998 128.957 290.788 129.093 290.604C129.227 290.43 129.395 290.286 129.586 290.179C129.777 290.072 129.988 290.004 130.206 289.981C130.608 289.941 131.01 290.053 131.333 290.295C131.655 290.538 131.875 290.893 131.949 291.29ZM131.949 291.29C131.916 291.11 131.844 290.939 131.739 290.789C131.633 290.639 131.497 290.514 131.339 290.422C131.181 290.329 131.004 290.272 130.822 290.254C130.64 290.236 130.456 290.257 130.283 290.317C129.988 290.421 129.741 290.629 129.587 290.901C129.432 291.173 129.381 291.491 129.442 291.798C129.503 292.105 129.673 292.379 129.92 292.571C130.167 292.763 130.475 292.86 130.787 292.844C130.97 292.829 131.147 292.775 131.308 292.686C131.468 292.597 131.608 292.475 131.718 292.328C131.828 292.182 131.905 292.013 131.945 291.834C131.985 291.655 131.986 291.469 131.949 291.29Z" fill="black"/>
<path d="M135.312 307.866L96.5508 319.613L97.9232 324.142L136.684 312.395L135.312 307.866Z" fill="#D2D0FF"/>
<path d="M115.429 311.373L110.934 312.793L113.042 319.47L117.537 318.05L115.429 311.373Z" fill="#A29FE4"/>
<path d="M97.6089 330.771L87.6059 287.469L57.4219 294.623L72.2829 336.833L97.6089 330.771Z" fill="#C0BDF8"/>
<path d="M104.307 328.573L97.6085 330.771L87.6055 287.469L97.2375 289.758L104.307 328.573Z" fill="#A29FE4"/>
<path d="M135.997 315.264C138.835 315.264 141.135 312.964 141.135 310.126C141.135 307.289 138.835 304.988 135.997 304.988C133.16 304.988 130.859 307.289 130.859 310.126C130.859 312.964 133.16 315.264 135.997 315.264Z" fill="#A29FE4"/>
<path d="M188.878 307.748L187.496 312.273L226.232 324.102L227.614 319.576L188.878 307.748Z" fill="#D2D0FF"/>
<path d="M207.438 311.842L205.293 318.535L209.799 319.979L211.944 313.287L207.438 311.842Z" fill="#A29FE4"/>
<path d="M226.535 330.737L236.629 287.449L266.799 294.673L251.847 336.848L226.535 330.737Z" fill="#C0BDF8"/>
<path d="M219.844 328.518L226.536 330.737L236.63 287.449L226.991 289.724L219.844 328.518Z" fill="#A29FE4"/>
<path d="M183.051 310.002C183.049 311.018 183.349 312.012 183.912 312.857C184.475 313.703 185.277 314.362 186.214 314.753C187.152 315.143 188.185 315.247 189.182 315.05C190.178 314.854 191.095 314.367 191.814 313.65C192.534 312.933 193.025 312.019 193.226 311.023C193.426 310.027 193.327 308.994 192.94 308.054C192.554 307.115 191.897 306.311 191.054 305.744C190.211 305.178 189.219 304.874 188.203 304.871C187.527 304.869 186.858 305.001 186.234 305.258C185.609 305.514 185.042 305.892 184.563 306.369C184.085 306.845 183.705 307.411 183.445 308.035C183.186 308.658 183.052 309.327 183.051 310.002Z" fill="#A29FE4"/>
<path d="M218.262 256.577C218.381 256.465 230.862 244.922 245.471 248.877C260.451 252.916 272.813 275.477 272.939 275.701L277.097 273.447C276.558 272.446 263.664 248.877 246.703 244.306C229.462 239.658 215.581 252.601 215 253.161L218.262 256.577Z" fill="#C0BDF8"/>
<path d="M267.417 298.404L276.384 293.672C275.24 291.508 274.527 289.143 274.284 286.707C274.088 283.431 275.383 282.276 276.818 281.52C279.961 279.861 281.837 280.519 283.118 281.275C284.917 282.332 286.744 284.502 288.263 287.386L296.933 284.001C294.476 279.353 291.763 274.604 288.27 272.539C284.777 270.474 279.17 268.822 272.086 272.539C266.577 275.451 263.763 280.694 264.162 287.309C264.502 291.186 265.609 294.958 267.417 298.404Z" fill="#A29FE4"/>
<path d="M113.758 276.901C114.586 275.399 115.73 274.095 117.111 273.079C118.484 272.033 120.06 271.285 121.738 270.881C123.435 270.462 125.212 270.501 126.89 270.993C128.562 271.517 130.073 272.459 131.279 273.73C132.478 274.997 133.411 276.492 134.023 278.126C134.678 279.751 134.969 281.5 134.877 283.25C134.849 284.179 134.517 285.075 133.932 285.798C133.578 286.168 133.093 286.387 132.581 286.407C132.095 286.418 131.615 286.31 131.181 286.092C130.744 285.853 130.395 285.48 130.187 285.028C129.99 284.587 129.885 284.11 129.879 283.628C129.869 282.736 130.018 281.849 130.32 281.01C130.895 279.365 131.747 277.831 132.84 276.474C133.903 275.107 135.157 273.9 136.564 272.89C139.372 270.784 142.873 269.817 146.364 270.181C148.088 270.377 149.755 270.915 151.268 271.764C152.781 272.612 154.11 273.754 155.177 275.123C156.236 276.472 157.096 277.967 157.732 279.561C158.398 281.13 158.869 282.776 159.132 284.461C158.503 281.128 157.06 278.002 154.932 275.361C153.869 274.064 152.564 272.987 151.089 272.19C149.614 271.404 147.999 270.917 146.336 270.755C144.689 270.587 143.025 270.74 141.436 271.203C139.84 271.686 138.337 272.437 136.991 273.422C134.273 275.383 132.196 278.103 131.02 281.241C130.744 282.004 130.602 282.809 130.6 283.621C130.579 283.989 130.655 284.356 130.821 284.685C130.987 285.015 131.236 285.294 131.545 285.497C131.874 285.664 132.239 285.748 132.609 285.742C132.78 285.737 132.948 285.699 133.104 285.63C133.261 285.56 133.401 285.46 133.519 285.336C134.001 284.718 134.273 283.963 134.296 283.18C134.389 281.524 134.119 279.869 133.505 278.329C132.922 276.774 132.042 275.347 130.915 274.129C129.786 272.909 128.368 271.994 126.792 271.469C125.206 270.966 123.515 270.893 121.892 271.259C120.227 271.606 118.649 272.284 117.252 273.253C115.854 274.223 114.666 275.463 113.758 276.901Z" fill="#434343"/>
<path d="M110.992 277.081C110.332 276.876 109.626 276.871 108.963 277.067C108.301 277.263 107.711 277.65 107.268 278.18C106.825 278.71 106.549 279.36 106.475 280.047C106.4 280.734 106.531 281.427 106.85 282.04C107.169 282.653 107.662 283.158 108.268 283.49C108.873 283.823 109.563 283.97 110.252 283.911C110.94 283.852 111.596 283.591 112.136 283.161C112.676 282.73 113.077 282.149 113.288 281.491C113.429 281.051 113.481 280.587 113.442 280.126C113.402 279.666 113.272 279.217 113.059 278.807C112.845 278.397 112.553 278.034 112.198 277.737C111.843 277.441 111.433 277.218 110.992 277.081ZM112.882 281.358C112.698 281.94 112.346 282.455 111.87 282.838C111.394 283.22 110.815 283.453 110.207 283.506C109.599 283.56 108.988 283.431 108.453 283.138C107.917 282.844 107.481 282.399 107.199 281.857C106.917 281.315 106.802 280.702 106.868 280.095C106.935 279.488 107.18 278.915 107.572 278.447C107.965 277.979 108.487 277.638 109.073 277.467C109.66 277.296 110.283 277.303 110.866 277.487C111.253 277.608 111.612 277.804 111.923 278.065C112.234 278.325 112.49 278.644 112.678 279.004C112.865 279.363 112.979 279.757 113.014 280.161C113.049 280.565 113.004 280.971 112.882 281.358ZM110.992 277.081C110.332 276.876 109.626 276.871 108.963 277.067C108.301 277.263 107.711 277.65 107.268 278.18C106.825 278.71 106.549 279.36 106.475 280.047C106.4 280.734 106.531 281.427 106.85 282.04C107.169 282.653 107.662 283.158 108.268 283.49C108.873 283.823 109.563 283.97 110.252 283.911C110.94 283.852 111.596 283.591 112.136 283.161C112.676 282.73 113.077 282.149 113.288 281.491C113.429 281.051 113.481 280.587 113.442 280.126C113.402 279.666 113.272 279.217 113.059 278.807C112.845 278.397 112.553 278.034 112.198 277.737C111.843 277.441 111.433 277.218 110.992 277.081ZM112.882 281.358C112.698 281.94 112.346 282.455 111.87 282.838C111.394 283.22 110.815 283.453 110.207 283.506C109.599 283.56 108.988 283.431 108.453 283.138C107.917 282.844 107.481 282.399 107.199 281.857C106.917 281.315 106.802 280.702 106.868 280.095C106.935 279.488 107.18 278.915 107.572 278.447C107.965 277.979 108.487 277.638 109.073 277.467C109.66 277.296 110.283 277.303 110.866 277.487C111.253 277.608 111.612 277.804 111.923 278.065C112.234 278.325 112.49 278.644 112.678 279.004C112.865 279.363 112.979 279.757 113.014 280.161C113.049 280.565 113.004 280.971 112.882 281.358ZM110.992 277.081C110.332 276.876 109.626 276.871 108.963 277.067C108.301 277.263 107.711 277.65 107.268 278.18C106.825 278.71 106.549 279.36 106.475 280.047C106.4 280.734 106.531 281.427 106.85 282.04C107.169 282.653 107.662 283.158 108.268 283.49C108.873 283.823 109.563 283.97 110.252 283.911C110.94 283.852 111.596 283.591 112.136 283.161C112.676 282.73 113.077 282.149 113.288 281.491C113.429 281.051 113.481 280.587 113.442 280.126C113.402 279.666 113.272 279.217 113.059 278.807C112.845 278.397 112.553 278.034 112.198 277.737C111.843 277.441 111.433 277.218 110.992 277.081ZM112.882 281.358C112.698 281.94 112.346 282.455 111.87 282.838C111.394 283.22 110.815 283.453 110.207 283.506C109.599 283.56 108.988 283.431 108.453 283.138C107.917 282.844 107.481 282.399 107.199 281.857C106.917 281.315 106.802 280.702 106.868 280.095C106.935 279.488 107.18 278.915 107.572 278.447C107.965 277.979 108.487 277.638 109.073 277.467C109.66 277.296 110.283 277.303 110.866 277.487C111.253 277.608 111.612 277.804 111.923 278.065C112.234 278.325 112.49 278.644 112.678 279.004C112.865 279.363 112.979 279.757 113.014 280.161C113.049 280.565 113.004 280.971 112.882 281.358ZM112.182 273.364C110.783 272.922 109.285 272.905 107.877 273.315C106.469 273.724 105.214 274.542 104.271 275.665C103.328 276.788 102.74 278.166 102.579 279.623C102.419 281.081 102.695 282.553 103.372 283.854C104.049 285.155 105.096 286.226 106.382 286.931C107.668 287.637 109.134 287.945 110.594 287.817C112.055 287.689 113.445 287.131 114.589 286.213C115.732 285.295 116.578 284.059 117.019 282.66C117.311 281.731 117.417 280.754 117.331 279.784C117.245 278.814 116.969 277.87 116.519 277.007C116.068 276.144 115.452 275.378 114.706 274.753C113.959 274.128 113.097 273.656 112.168 273.364H112.182ZM113.827 281.652C113.585 282.417 113.121 283.094 112.495 283.596C111.869 284.099 111.108 284.404 110.308 284.474C109.508 284.543 108.706 284.374 108.002 283.988C107.298 283.602 106.725 283.016 106.354 282.304C105.983 281.592 105.832 280.786 105.919 279.988C106.007 279.19 106.328 278.435 106.844 277.82C107.36 277.205 108.047 276.757 108.817 276.532C109.588 276.307 110.408 276.315 111.174 276.556C112.198 276.884 113.051 277.604 113.545 278.559C114.04 279.514 114.136 280.626 113.813 281.652H113.827ZM113.302 281.491C113.506 280.831 113.511 280.125 113.316 279.463C113.12 278.8 112.733 278.21 112.202 277.767C111.672 277.324 111.023 277.048 110.336 276.974C109.649 276.9 108.955 277.03 108.343 277.349C107.73 277.668 107.225 278.162 106.892 278.767C106.559 279.372 106.413 280.063 106.471 280.751C106.53 281.439 106.791 282.095 107.222 282.635C107.653 283.176 108.234 283.576 108.892 283.787C109.331 283.926 109.793 283.977 110.252 283.936C110.711 283.896 111.158 283.765 111.566 283.552C111.975 283.339 112.337 283.047 112.633 282.693C112.928 282.339 113.15 281.931 113.288 281.491H113.302ZM112.896 281.358C112.712 281.94 112.36 282.455 111.884 282.838C111.408 283.22 110.829 283.453 110.221 283.506C109.613 283.56 109.002 283.431 108.467 283.138C107.931 282.844 107.495 282.399 107.213 281.857C106.931 281.315 106.816 280.702 106.882 280.095C106.949 279.488 107.194 278.915 107.586 278.447C107.979 277.979 108.501 277.638 109.087 277.467C109.674 277.296 110.297 277.303 110.88 277.487C111.265 277.61 111.623 277.807 111.933 278.068C112.242 278.329 112.497 278.648 112.683 279.008C112.869 279.367 112.982 279.76 113.016 280.163C113.05 280.566 113.005 280.972 112.882 281.358H112.896ZM111.006 277.081C110.346 276.876 109.64 276.871 108.977 277.067C108.315 277.263 107.725 277.65 107.282 278.18C106.839 278.71 106.563 279.36 106.489 280.047C106.414 280.734 106.545 281.427 106.864 282.04C107.183 282.653 107.676 283.158 108.282 283.49C108.887 283.823 109.577 283.97 110.266 283.911C110.954 283.852 111.61 283.591 112.15 283.161C112.69 282.73 113.091 282.149 113.302 281.491C113.442 281.05 113.494 280.585 113.454 280.124C113.414 279.663 113.282 279.214 113.067 278.804C112.853 278.393 112.558 278.03 112.202 277.734C111.846 277.439 111.434 277.217 110.992 277.081H111.006ZM112.896 281.358C112.712 281.94 112.36 282.455 111.884 282.838C111.408 283.22 110.829 283.453 110.221 283.506C109.613 283.56 109.002 283.431 108.467 283.138C107.931 282.844 107.495 282.399 107.213 281.857C106.931 281.315 106.816 280.702 106.882 280.095C106.949 279.488 107.194 278.915 107.586 278.447C107.979 277.979 108.501 277.638 109.087 277.467C109.674 277.296 110.297 277.303 110.88 277.487C111.265 277.61 111.623 277.807 111.933 278.068C112.242 278.329 112.497 278.648 112.683 279.008C112.869 279.367 112.982 279.76 113.016 280.163C113.05 280.566 113.005 280.972 112.882 281.358H112.896ZM111.006 277.081C110.346 276.876 109.64 276.871 108.977 277.067C108.315 277.263 107.725 277.65 107.282 278.18C106.839 278.71 106.563 279.36 106.489 280.047C106.414 280.734 106.545 281.427 106.864 282.04C107.183 282.653 107.676 283.158 108.282 283.49C108.887 283.823 109.577 283.97 110.266 283.911C110.954 283.852 111.61 283.591 112.15 283.161C112.69 282.73 113.091 282.149 113.302 281.491C113.442 281.05 113.494 280.585 113.454 280.124C113.414 279.663 113.282 279.214 113.067 278.804C112.853 278.393 112.558 278.03 112.202 277.734C111.846 277.439 111.434 277.217 110.992 277.081H111.006ZM112.896 281.358C112.712 281.94 112.36 282.455 111.884 282.838C111.408 283.22 110.829 283.453 110.221 283.506C109.613 283.56 109.002 283.431 108.467 283.138C107.931 282.844 107.495 282.399 107.213 281.857C106.931 281.315 106.816 280.702 106.882 280.095C106.949 279.488 107.194 278.915 107.586 278.447C107.979 277.979 108.501 277.638 109.087 277.467C109.674 277.296 110.297 277.303 110.88 277.487C111.265 277.61 111.623 277.807 111.933 278.068C112.242 278.329 112.497 278.648 112.683 279.008C112.869 279.367 112.982 279.76 113.016 280.163C113.05 280.566 113.005 280.972 112.882 281.358H112.896Z" fill="#434343"/>
<path d="M109.159 287.638L106.443 286.777L105.988 288.751L108.403 289.514L109.159 287.638Z" fill="#434343"/>
<path d="M104.28 285.089L102.964 282.562L101.242 283.633L102.418 285.88L104.28 285.089Z" fill="#434343"/>
<path d="M102.618 279.831L103.479 277.115L101.505 276.66L100.742 279.075L102.618 279.831Z" fill="#434343"/>
<path d="M105.17 274.953L107.697 273.637L106.626 271.922L104.379 273.091L105.17 274.953Z" fill="#434343"/>
<path d="M110.418 273.302L113.141 274.156L113.596 272.182L111.174 271.426L110.418 273.302Z" fill="#434343"/>
<path d="M115.305 275.842L116.621 278.369L118.336 277.298L117.167 275.051L115.305 275.842Z" fill="#434343"/>
<path d="M116.956 281.098L116.102 283.814L118.076 284.269L118.832 281.854L116.956 281.098Z" fill="#434343"/>
<path d="M114.414 285.977L111.887 287.293L112.958 289.015L115.205 287.839L114.414 285.977Z" fill="#434343"/>
<path d="M115.128 98.664V92.816L137.976 60.04H147.36V91.932H153.684V98.664H147.36V109H139.744V98.664H115.128ZM140.084 67.928L124.036 91.932H140.084V67.928ZM160.107 83.568C160.107 75.7253 161.422 69.6053 164.051 65.208C166.726 60.7653 171.305 58.544 177.787 58.544C184.27 58.544 188.826 60.7653 191.455 65.208C194.13 69.6053 195.467 75.7253 195.467 83.568C195.467 91.5013 194.13 97.712 191.455 102.2C188.826 106.643 184.27 108.864 177.787 108.864C171.305 108.864 166.726 106.643 164.051 102.2C161.422 97.712 160.107 91.5013 160.107 83.568ZM187.851 83.568C187.851 79.896 187.602 76.7907 187.103 74.252C186.65 71.7133 185.698 69.6507 184.247 68.064C182.797 66.432 180.643 65.616 177.787 65.616C174.931 65.616 172.778 66.432 171.327 68.064C169.877 69.6507 168.902 71.7133 168.403 74.252C167.95 76.7907 167.723 79.896 167.723 83.568C167.723 87.376 167.95 90.572 168.403 93.156C168.857 95.74 169.809 97.8253 171.259 99.412C172.755 100.999 174.931 101.792 177.787 101.792C180.643 101.792 182.797 100.999 184.247 99.412C185.743 97.8253 186.718 95.74 187.171 93.156C187.625 90.572 187.851 87.376 187.851 83.568ZM202.718 98.664V92.816L225.566 60.04H234.95V91.932H241.274V98.664H234.95V109H227.334V98.664H202.718ZM227.674 67.928L211.626 91.932H227.674V67.928Z" fill="#434343"/>
</g>
<defs>
<clipPath id="clip0_1811_7057">
<rect width="350" height="350" fill="white"/>
</clipPath>
</defs>
</svg>
